<svg xmlns="http://www.w3.org/2000/svg" enable-background="new 0 0 1920 1080" viewBox="0 0 1920 1080"><ellipse cx="998.1" cy="1043" fill="#2a94f4" opacity=".1" rx="186" ry="37"/><path fill="#2a94f4" d="M991.1,14.5c-271.5,0-491.6,220.1-491.6,491.6s220.1,491.6,491.6,491.6s491.6-220.1,491.6-491.6
	S1262.6,14.5,991.1,14.5z M1311.2,548.1l-455,314.9c-23.5,16.3-55.7-0.6-55.7-29.2V204.1c0-28.6,32.1-45.5,55.7-29.2l455,314.9
	C1331.6,503.9,1331.6,534,1311.2,548.1z" opacity=".1"/><path fill="#0b4870" d="M947.4,156.2c0,0-42.1-0.9-47.9,80.4c-5.8,81.3-15,107.9-64.9,127.9s-65.3,85.7-28.5,116.5
	s189.6,134.6,209.2,10.6s40.9-75.1,72.9-122.9c57.6-86-39.1-200-75-207.3C977.3,154.1,947.4,156.2,947.4,156.2z"/><path fill="#b97a59" d="M1047.7,345.9l1-1.5l0.8-1.2l1.1-1.9l2.3-3.7l4.5-7.3l8.9-14.6l17.8-29.2c11.8-19.5,23.6-38.9,35.4-58.8
			l1.1-1.9l1.2-2.2c0.8-1.5,1.7-3.1,2.4-4.5c1.3-2.8,2.7-5.6,3.9-8.3c2.4-5.5,4.6-10.9,6.9-16.3c4.3-10.8,8.4-21.5,12.4-32.3
			c8-21.5,19.1-65.9,19.1-65.9l-16.7-4.9c0,0-23.2,38.3-31.9,59.1c-4.4,10.4-8.8,20.8-13.4,30.9c-2.3,5.1-4.6,10.1-7,14.9
			c-1.2,2.5-2.4,4.7-3.6,7c-0.6,1.1-1.2,2-1.7,3l-0.9,1.5l-1.1,1.7c-12.3,18.7-25.1,37.7-37.8,56.5l-37.6,55.5l-1,1.5
			c-6.4,9.4-3.9,22.2,5.5,28.5c9.4,6.4,22.2,3.9,28.5-5.5C1047.6,346.1,1047.7,345.9,1047.7,345.9z"/><path fill="#b97a59" d="M1166.5,99.1c0,0,9.3-32.9-2.9-45.6c-12.2-12.6-25.6-2.2-23,12.6c2.6,14.8,7.8,30.5,5.3,36.9
			c-2.4,6.3,7.8,8.4,7.8,8.4L1166.5,99.1z"/><path fill="#f5a171" d="M1032.9,327.2c0.9,0.4,8.1,67.4,5.5,77.2c-2.2,8.3-13.3,25.1-19.6,33.9c-1.7-11.5-3.4-22.9-4.9-34.3l-3.9-30.1
	c0.4-2.1,0.9-4.2,1.4-6.4C1018.4,336,1032,326.9,1032.9,327.2z" opacity=".5"/><path fill="#ffbe55" d="M1047,418c-1.9,8-1.2,79.4,1.3,120.1H942.6c1.6-2.4,18.3-48.4,14.5-59.8c-10.5-31.5-31.8-95.4-33.6-102.2
	c-2.4-9.1,0.5-55.4,2.4-57.3c1.9-1.9,37-16.3,40-16s34-7.8,34-7.8l13.1,11.7c1.3,0.3,11.5-3.1,18.5,1.9c0.1,0.6,0.4,1.1,0.8,1.7
	c9.3,12.5,23.1,65.7,24.1,67.4C1058.7,382,1065.7,403.6,1047,418z"/><path fill="#a56950" d="M1012.9,306.5l0.1,0.2H955c-0.1-0.2-0.1-0.5-0.1-0.7c18-13.1-2.9-75.8-2.9-81.4c0,0,48.7,11.2,61.3,24.5
	C982.6,284.6,1012.9,306.5,1012.9,306.5z"/><path fill="#b97a59" d="M944.1 244.1c-2.7-12.1-5.8-24.1-5.8-36.4 0-81.4 92.5-55.9 92.5-21.9 0 20.4 2.9 57-10.2 81-5.2 9.5-16 14.4-26.5 12.1-25.8-5.6-46-16.8-49.9-34.4L944.1 244.1zM954.8 344.4l-.6 1.7-.6 1.3-.9 2-1.7 4-3.4 7.9-6.8 15.7-13.6 31.4c-9.1 21-18.1 41.7-27.5 62.8l-.9 2-1.1 2.3c-.8 1.5-1.5 3.1-2.3 4.5-1.5 2.7-3 5.5-4.6 8-3.1 5.1-6.2 10.1-9.3 15-6.3 9.8-12.7 19.3-19.1 28.8-12.9 19-42.7 53.7-42.7 53.7l-13.7-10.8c0 0 17.8-41 29.8-60.2 5.9-9.6 11.8-19.2 17.5-28.8 2.8-4.8 5.5-9.6 8.1-14.4 1.3-2.4 2.4-4.7 3.6-7 .5-1.1.9-2.1 1.4-3.1l.7-1.6.8-1.9c8.2-20.9 16.3-42.3 24.3-63.5l23.5-62.7.6-1.7c4-10.6 15.8-16 26.4-12 10.6 4 16 15.8 12 26.4C954.9 344.2 954.8 344.3 954.8 344.4z"/><path fill="#b97a59" d="M822.1,583.9c0,0-21.5,26.6-38.8,24c-17.3-2.6-16.6-19.6-3-26c13.6-6.4,29.4-11.3,33.2-17s11.3,1.5,11.3,1.5
	L822.1,583.9z"/><path fill="#f6e8ff" d="M1017.7,527.6c22.5,0,29.1-20.3,29.1-20.3l9.3,36.9c-5.6,4.7-16.3,2.3-16.8,9.6c-3.2,0.2-7.4-0.2-12.8-1.6
	c-30.4-7.9-57.7-10.1-57.7-10.1s-3.1-9.7-5.7-15.9c-2.6-6.2-10.6-18.9-10.6-18.9S995.3,527.6,1017.7,527.6z"/><path fill="#0b4870" d="M1112.2 1035.7c3.1-.1 3.9-4.2 1.1-5.5-9.4-4.1-19.7-8.9-24.8-9.5-7.8-1-30.8-1-30.8-1s-2.4 17.1-1 17.1C1057.7 1036.9 1092.1 1036.2 1112.2 1035.7zM946.9 1041.8c3.1-.1 3.9-4.2 1.1-5.5-9.4-4.1-19.7-8.9-24.8-9.5-7.8-1-30.8-1-30.8-1s-2.4 17.1-1 17.1C892.4 1043 926.8 1042.2 946.9 1041.8z"/><path fill="#0e538c" d="M1141.5,739.4L1047,507.2l-94.4-1c-3.2,6.1-27.4,39.7-30.6,70.7c-3,28.7,43.6,168,54.1,208.1
	c0.3-0.1-83.3,240.9-83.3,240.9l22.6-0.1l103.4-209.3c9.9-17.5,13.6-37.9,10.4-57.7l-11.4-148c27.8,59.2,75.2,151.2,77.5,156.3
	c-23.1,114.5-38,252.5-38,252.5l23.2,0.5l64.2-222.1C1150.3,778.7,1149.2,758,1141.5,739.4z"/><path fill="#f5a171" d="M950.7,224.4c0,6.7-4.9,12.2-10.9,12.2c-6,0-10.9-5.5-10.9-12.2s4.9-12.2,10.9-12.2
	C945.9,212.2,950.7,217.7,950.7,224.4z"/><path fill="#0b4870" d="M964.9,178.2c0,0,3.8,43.1-25,38.2c0,0-30.3-14,0-52.3s88-8.7,93.3,16.3s-2.9,48.7-2.9,48.7s5.4-43-9.8-51.7
	C1001.4,166.5,991.1,199,964.9,178.2z"/><linearGradient id="a" x1="-2052.8" x2="-2052.8" y1="151.902" y2="348.72" gradientTransform="matrix(-.9988 -.0496 .1118 1.0621 -1130.44 -106.151)" gradientUnits="userSpaceOnUse"><stop offset="0" stop-color="#ffac85"/><stop offset="1" stop-color="#ff8e59"/></linearGradient><path fill="url(#a)" d="M931,238.8c-0.9-8.5,4.9-15.1,12.9-14.7c8,0.4,15.2,7.6,16.1,16.2c0.9,8.5-4.9,15.1-12.9,14.7
		C939.2,254.6,931.9,247.3,931,238.8z"/><ellipse cx="942.3" cy="237.5" fill="#341675" rx="20.6" ry="23.4"/><path fill="#a1c9e2" d="M971.4,234.3c0,15.9-13.6,28.8-27.1,28.8c-13.5,0-24.4-12.9-24.4-28.8s10.9-28.8,24.4-28.8
		C957.9,205.5,971.4,218.4,971.4,234.3z"/><ellipse cx="942.4" cy="234.3" fill="#f7f7f7" rx="22.5" ry="28.8"/><path fill="#f7f7f7" d="M934,208.8c0-1.1,1.5-53.6,49.4-57.6c10.3-1,38.8,11.4,38.8,11.4s-38.8-16.1-60.8,8.7
		c-11.1,12.6-13.8,38.1-13.8,38.1L934,208.8z"/><path fill="#ffbe55" d="M630.9,880.6C630.9,880.6,630.9,880.6,630.9,880.6C630.9,880.6,630.9,880.5,630.9,880.6l-0.6-112.2h-6.1
	l0.5,98.6c-4.5-4.3-11.1-7-18.5-7c-13.6,0-24.6,9.2-24.6,20.5c0,11.3,11,20.3,24.6,20.3c13.5,0,24.4-8.4,24.6-20.4h0.2V880.6z"/><path fill="#0b4870" d="M1228.4,464.5c-2.7-6.7-9.8-11-18.2-11c-4.7,0-9.3,1.4-13.1,3.9c-2.9,1.9-5.1,4.3-6.8,7.1l0.4-85h-6.1L1184,492
	h0c0,0.7,0,1.3,0,1.9l0,3.1l3.1,0.1c0,0,1-0.1,2.6-0.1c0,0,0,0,0,0c5.4,0,15.7-0.4,23.7-3.8C1226,487.9,1232.6,475.1,1228.4,464.5z
	 M1210.9,487.3c-6.8,2.9-15.9,3.4-20.3,3.4c0.4-14.7,3.5-23.3,10.1-27.7c2.7-1.8,6.1-2.8,9.4-2.8c5.7,0,10.5,2.7,12.1,6.8
	C1225.2,474.2,1220.1,483.4,1210.9,487.3z"/><path fill="#ffbe55" d="M1458.1 610.2c9.9 0 18 6.2 18 13.9 0 7.7-8.1 13.9-18 13.9-9.9 0-18-6.2-18-13.9C1440.1 616.5 1448.2 610.2 1458.1 610.2M1458.1 603.6c-13.6 0-24.6 9.2-24.6 20.5 0 11.3 11 20.5 24.6 20.5 13.6 0 24.6-9.2 24.6-20.5C1482.7 612.8 1471.7 603.6 1458.1 603.6L1458.1 603.6zM876.8 115.5C876.8 115.5 876.8 115.5 876.8 115.5 876.8 115.5 876.8 115.5 876.8 115.5L876.4 3.4h0l0-1.8L790 12.3l.1 13.4.4 86.2c-4.5-4.3-11.1-7-18.5-7-13.6 0-24.6 9.2-24.6 20.5 0 11.3 11 20.3 24.6 20.3 13.5 0 24.4-8.3 24.6-20.4h0v.2c0 0 0 0 0 0 0 0 0 0 0 0L796.3 25l74-9.6.4 86.6c-4.5-4.3-11.1-7-18.5-7-13.6 0-24.6 9.2-24.6 20.5 0 11.3 11 20.3 24.6 20.3 13.5 0 24.4-8.3 24.6-20.4h0V115.5z"/><path fill="#0b4870" d="M1348.3 171.9c-5-2.9-11.2-1.8-13.6 2.3l-.1 0 0 0c0 0 0 0 0 0 0 0 0 0 0 0l-21.6 37.7-29.9-12.4 18.7-32.6c.8 2.6 2.7 5 5.4 6.6 5.1 2.9 11.2 1.9 13.7-2.4 2.5-4.2.3-10-4.8-13-5-2.9-11.2-1.8-13.6 2.3l-.1 0 0 0c0 0 0 0 0 0 0 0 0 0 0 0l-24.1 42.1 0 0-.4.7 34.7 14.7 2.8-5 18.6-32.5c.8 2.6 2.7 5 5.4 6.6 5.1 2.9 11.2 1.9 13.7-2.3S1353.4 174.9 1348.3 171.9zM662 285.9c-5.8.8-9.9 5.5-9.3 10.2l-.1 0 0 0c0 0 0 0 0 0 0 0 0 0 0 0l6.1 43.1-31.2 8.5-5.3-37.2c2.2 1.6 5.2 2.3 8.4 1.9 5.8-.8 10-5.4 9.3-10.3-.7-4.9-5.9-8.1-11.8-7.3-5.8.8-9.9 5.5-9.3 10.2l-.1 0 0 0c0 0 0 0 0 0 0 0 0 0 0 0l6.9 48 0 0 .1.8 36.5-9.7-.9-5.7-5.3-37c2.2 1.6 5.2 2.3 8.4 1.9 5.8-.8 10-5.4 9.3-10.2S667.8 285.1 662 285.9z"/><path fill="#ffbe55" d="M1380.6 921.6C1380.6 921.6 1380.6 921.6 1380.6 921.6 1380.6 921.6 1380.6 921.6 1380.6 921.6l-.4-112.2h0l0-1.9-86.4 10.8.1 13.3.4 86.3c-4.5-4.3-11.1-7-18.5-7-13.6 0-24.6 9.2-24.6 20.5 0 11.3 11 20.2 24.6 20.2 13.4 0 24.3-8.3 24.6-20.4h0v.2c0 0 0 0 0-.1 0 0 0 0 0-.1l-.3-87.7 74-10.1.3 74.5c-4.5-4.3-11.1-7-18.5-7-13.6 0-24.6 9.2-24.6 20.5 0 11.3 11 20.8 24.6 20.8 13.4 0 24.3-8.8 24.6-19.8h0V921.6zM1300.1 837l0-6 74-9.6 0 5.5L1300.1 837zM1561.3 336.5c-8.7 0-15.8 6.1-16 13.2h-.1v0c0 0 0 0 0 0 0 0 .1 0 .1 0l.2 56.9-48 6.6-.2-48.4c2.9 2.8 7.2 4.5 12 4.5 8.8 0 16-6 16-13.3 0-7.4-7.1-13.2-16-13.2-8.7 0-15.8 6.1-16 13.2h-.1v0c0 0 0 0 0 0 0 0 .1 0 .1 0l.3 72.6h0l0 1.3 56.1-7-.1-8.6-.3-56c2.9 2.8 7.2 4.5 12 4.5 8.8 0 16-5.9 16-13.3C1577.3 342.4 1570.1 336.5 1561.3 336.5zM1545.5 411l0 3.9-48 6.3 0-3.5L1545.5 411zM590.2 520.8c-8.7 0-15.8 6.1-16 13.2h-.1v0c0 0 0 0 0 0 0 0 .1 0 .1 0l.2 56.9-48 6.6-.2-48.4c2.9 2.8 7.2 4.5 12 4.5 8.8 0 16-6 16-13.3 0-7.4-7.1-13.2-16-13.2-8.7 0-15.8 6.1-16 13.2h-.1v0c0 0 0 0 0 0 0 0 .1 0 .1 0l.3 72.6h0l0 1.3 56.1-7-.1-8.6-.3-56c2.9 2.8 7.2 4.5 12 4.5 8.8 0 16-5.9 16-13.3C606.2 526.7 599.1 520.8 590.2 520.8zM574.5 595.3l0 3.9-48 6.3 0-3.5L574.5 595.3z"/></svg>