<svg xmlns="http://www.w3.org/2000/svg" width="1000" height="1000" enable-background="new 0 0 1000 1000" viewBox="0 0 1000 1000"><ellipse cx="480.75" cy="777.245" fill="#E5E5E5" rx="392.933" ry="27.125"/><ellipse cx="498.317" cy="845.893" fill="#E5E5E5" rx="476.226" ry="62.103"/><path fill="#3E89FC" d="M846.5,603c0,0,38.5-2.82,38,43.44c-0.45,41.239-30.69,43.479-37.25,43.479
								c-0.8,0-1.25-0.03-1.25-0.03H552.5v-14.56h7.52H845.5c0,0,20.73-4.22,21.5-27.24c1-30.06-23.5-30.06-23.5-30.06H560.02h-7.52
								V614v-11h196H846.5z"/><path d="M882.88 771.67c.55 0 1 .45 1 1s-.45 1-1 1v-1V771.67zM882.88 782c.55 0 1 .45 1 1s-.45 1-1 1v-1V782zM882.88 793.67c.55 0 1 .45 1 1s-.45 1-1 1v-1V793.67z"/><path fill="#E5E5E5" d="M882.88,795.67v14.45H565.16c0,0-23.08-3.88-23.93-25.03c-1.11-27.63,26.149-27.63,26.149-27.63
								h315.5v14.21H563.33c-0.55,0-1,0.45-1,1s0.45,1,1,1h319.55V782H582.33c-0.55,0-1,0.45-1,1s0.45,1,1,1h300.55v9.67H630.33
								c-0.55,0-1,0.45-1,1s0.45,1,1,1H882.88z"/><path d="M882.88 794.67v1H630.33c-.55 0-1-.45-1-1s.45-1 1-1h252.55V794.67zM882.88 783v1H582.33c-.55 0-1-.45-1-1s.45-1 1-1h300.55V783zM882.88 773.67H563.33c-.55 0-1-.45-1-1s.45-1 1-1h319.55v1V773.67z"/><path fill="#E5E5E5" d="M843.5,618.03c0,0,24.5,0,23.5,30.06c-0.77,23.021-21.5,27.24-21.5,27.24H560.02v-14H832.33
								c0.55,0,1-0.45,1-1s-0.45-1-1-1H560.02v-11.89H802c0.55,0,1-0.45,1-1c0-0.551-0.45-1-1-1H560.02V632.67H811
								c0.55,0,1-0.45,1-1s-0.45-1-1-1H560.02v-12.64H843.5z"/><path fill="#A9D9FF" d="M850.5,689.92c0,0,9,27.21,0,52.57l-89.5,0.52v-53.09h86.25H850.5z"/><path d="M832.33 659.33c.55 0 1 .45 1 1s-.45 1-1 1H560.02v-1-1H832.33zM811 630.67c.55 0 1 .45 1 1s-.45 1-1 1H560.02v-1-1H811zM802 645.44c.55 0 1 .449 1 1 0 .55-.45 1-1 1H560.02v-1-1H802z"/><polygon fill="#FFF" points="761 689.92 761 743.01 649.66 743.65 615.67 743.65 615.67 743.62 615.67 689.92"/><path fill="#A9D9FF" d="M748.5,602.96V603h-196v11h-34V470h230V602.96z M694,548.33V518h-40.67v30.33H694z M607,566.11
								v-58.78h-67.5v58.78H607z"/><rect width="40.67" height="30.33" x="653.33" y="518" fill="#FFF"/><path fill="#A9D9FF" d="M615.67,743.62v0.03h-51.63c0,0-3.71-0.221-8.93,0.55L525,744.37c0,0-9-26.3,0-54.45h90.67V743.62z"/><rect width="67.5" height="58.78" x="539.5" y="507.33" fill="#FFF"/><path d="M560.02 660.33v1c-.55 0-1-.45-1-1s.45-1 1-1V660.33zM560.02 646.44v1c-.55 0-1-.45-1-1 0-.551.45-1 1-1V646.44zM560.02 631.67v1c-.55 0-1-.45-1-1s.45-1 1-1V631.67z"/><path fill="#295FC5" d="M541.23,785.09c0.85,21.15,23.93,25.03,23.93,25.03h317.72h8.37v13.38H564.6
								c0,0-42.29,2.59-42.85-39.92c-0.39-30.01,20.84-37.55,33.36-39.38l94.55-0.55H761h130.25v13.81h-8.37h-315.5
								C567.38,757.46,540.12,757.46,541.23,785.09z"/><g><path fill="#E5E5E5" d="M373.3,418v127.67H169V418H373.3z M334.96,479v-27.61h-48.63V479H334.96z M253,492.33v-26.66h-20.67
								V446h-42v24h21v22.33H253z"/><rect width="48.63" height="27.61" x="286.33" y="451.39" fill="#FFF"/><path fill="#A9D9FF" d="M271.15,706.33l-8.82,66.34H169l-8.67-66.34h19.58c0.11,0.24,0.17,0.38,0.17,0.39
								c0.16,0.38,0.53,0.61,0.92,0.61c0.13,0,0.26-0.03,0.39-0.08c0.38-0.16,0.61-0.53,0.61-0.92h28.33c0,0.02,0,0.03,0,0.03
								c0.01,0.54,0.46,0.97,1,0.97c0.01,0,0.02,0,0.03,0c0.54-0.01,0.96-0.45,0.97-1h23c0,0.01,0,0.01,0,0.01
								c0.01,0.55,0.45,0.99,1,0.99h0.01c0.55-0.01,1-0.46,0.99-1H271.15z"/><polygon fill="#A9D9FF" points="253 465.67 253 492.33 211.33 492.33 211.33 470 232.33 470 232.33 465.67"/><path d="M248.83,662.95c-0.12,0.22-0.24,0.43-0.36,0.649c-0.19-0.359-0.36-0.729-0.52-1.13c-0.1-0.26-0.19-0.529-0.28-0.8
								l-0.32-0.02c0-0.051,0.01-0.101,0.01-0.16c7.72-13.76,18.67-24.101,32.54-30.721c0.5-0.239,1.09-0.029,1.33,0.471
								c0.24,0.5,0.03,1.09-0.47,1.33C267.1,639.09,256.36,649.32,248.83,662.95z"/><path fill="#A9D9FF" d="M247.36,661.49c0.16-4.021-2.34-8.73-2.7-12.811c-0.53-5.979-0.33-14.029,1.91-19.609
								c3.94-9.801,14.28-18.63,25.08-18.74c3.42-0.03,7.74,0.79,11.02,0.02c5.35-1.26,5.98-6.069,7.39-10.279
								c3.34-10.021,19.63-10.16,24.96-1.99c3.73,5.72,5.67,13.59,3.91,20.34c-1.58,6.061-7.62,15.061-12.84,18.58
								c-6.75,4.55-15.54,2.63-22.02,7.98c-2.96,2.439-4.72,7.6-4.08,11.42c0.77,4.52,4.3,7.729,4.68,12.59
								c0.78,10.229-11.39,11.17-19.08,9.25c-4.57-1.141-7-4.23-10.25-7.25c-2.82-2.62-5.33-4.42-6.87-7.391
								c0.12-0.22,0.24-0.43,0.36-0.649c7.53-13.63,18.27-23.86,31.93-30.38c0.5-0.24,0.71-0.83,0.47-1.33
								c-0.24-0.5-0.83-0.71-1.33-0.471C266.03,637.39,255.08,647.73,247.36,661.49z"/><path d="M235.33,706.33c0-0.4-0.1-22.91,11.74-44.34c0.09-0.17,0.19-0.34,0.29-0.5c0,0.06-0.01,0.109-0.01,0.16l0.32,0.02
								c0.09,0.271,0.18,0.54,0.28,0.8c0.16,0.4,0.33,0.771,0.52,1.13c-11.27,20.851-11.14,42.5-11.14,42.721v0.01h-1H235.33z"/><path d="M236.33,706.33h1c0.01,0.54-0.44,0.99-0.99,1h-0.01c-0.55,0-0.99-0.44-1-0.99c0,0,0,0,0-0.01H236.33z"/><path fill="#3E89FC" d="M231.01,634.26c6.53,4.73,7.31,14.23,3.08,21.07c-4.67,7.55-16.31,16.86-25.83,14.08
								c-0.01-0.101-0.03-0.2-0.05-0.3c-4.82-27.4-15.45-63.511-38.63-79.931c-0.45-0.31-1.08-0.21-1.4,0.24
								c-0.32,0.45-0.21,1.08,0.24,1.4c22.56,15.97,33,51.39,37.79,78.39c-11.97-0.76-24.75-3.9-35.88-7.96
								c-7.1-2.59-16.07-8.33-15.34-16.99c0.41-4.859,4.03-7.91,7.68-10.59c2.81-2.07,5.8-4.4,4.67-8.42
								c-1.15-4.09-6.16-4.41-9.69-5.91c-5.01-2.13-10.17-4.8-13.58-9.08c-8.75-11.01-7.59-24.729,3.93-33.01
								c10.17-7.3,22.5-8.27,34-3.94c10.58,4,24.03,13.341,24,25.431c-0.02,9.18-4,16.33,3.74,23.59
								C215.95,628.15,224.25,629.36,231.01,634.26z"/><polygon fill="#FFF" points="232.33 465.67 232.33 470 211.33 470 190.33 470 190.33 446 232.33 446"/><path d="M211.33 706.33h1c-.01.55-.43.99-.97 1-.01 0-.02 0-.03 0-.54 0-.99-.43-1-.97 0 0 0-.011 0-.03H211.33zM210.33 706.33c-.02-.82-.55-16.84-4.08-36.88-.01-.08-.03-.16-.04-.24.34.03.68.05 1.02.07.26.029.51.04.77.05.09.03.17.05.26.08 3.6 20.479 4.07 36.729 4.07 36.89 0 .01 0 .021 0 .03h-1H210.33zM181 706.33h1c0 .39-.23.76-.61.92-.13.05-.26.08-.39.08-.39 0-.76-.23-.92-.61 0-.01-.06-.149-.17-.39H181z"/><path d="M168.42 590.82c-.45-.32-.56-.95-.24-1.4.32-.45.95-.55 1.4-.24 23.18 16.42 33.81 52.53 38.63 79.931.02.1.04.199.05.3-.09-.03-.17-.05-.26-.08-.26-.01-.51-.021-.77-.05-.34-.021-.68-.04-1.02-.07C201.42 642.21 190.98 606.79 168.42 590.82zM163.34 685.01c.21-.25.4-.529.57-.819.01.01.03.02.04.029l.2.15c.17.14.35.27.52.42 12.41 9.81 17.06 20.7 17.25 21.15.06.13.08.26.08.39h-1-1.09c-.95-2-5.78-11.51-16.51-20-.05-.04-.09-.08-.13-.1.13-.08.26-.16.4-.23l.35-.45C163.8 685.36 163.57 685.19 163.34 685.01z"/><path fill="#295FC5" d="M162.72,685.8l0.2,0.15c0.11,0.09,0.22,0.17,0.35,0.28c-3.64,2.05-5.82,3.68-10.27,4.68
								c-5.59,1.26-11.28,1.359-17.01,1.42c-9.35,0.1-17.11-2.66-24.99-7.26c-7.25-4.23-14.52-11.12-15.92-20.04
								c-1.6-10.15,8.15-21.96,19.2-19.391c3.09,0.721,3.7,4.04,5.14,6.36c1.64,2.65,3.17,3.35,6.33,3.67
								c8.24,0.82,15.38-5.53,23.92-2.35c7.52,2.79,13.18,10.239,14.75,17.949c0.72,3.53,1.52,9.461-0.51,12.921
								c-9.11-7-19.91-11.54-32.08-13.511c-0.55-0.09-1.06,0.29-1.15,0.83c-0.09,0.55,0.29,1.061,0.83,1.15
								C143.37,674.57,153.88,678.99,162.72,685.8z"/><path d="M162.92,685.95l-0.2-0.15c-8.84-6.81-19.35-11.229-31.21-13.14c-0.54-0.09-0.92-0.601-0.83-1.15
								c0.09-0.54,0.6-0.92,1.15-0.83c12.17,1.971,22.97,6.511,32.08,13.511c-0.17,0.29-0.36,0.569-0.57,0.819
								c0.23,0.181,0.46,0.351,0.68,0.54l-0.35,0.45c-0.14,0.07-0.27,0.15-0.4,0.23C163.14,686.12,163.03,686.04,162.92,685.95z"/></g><g><polygon fill="#E22953" points="775.73 285 771.73 303 703.73 285"/><polygon fill="#E22953" points="740 190 703.5 209 727 182.23"/><polygon fill="#E22953" points="706.5 384.66 696.5 395.5 669 347.75"/><polygon fill="#E22953" points="681 119.5 641.5 167 660.5 111.5"/><path fill="#A9D9FF" d="M575.29,341.23v0.12c0,0.55,0.45,0.99,1,0.99c0.51,0,0.94-0.39,0.99-0.89
								c5.27,0.61,10.149,1.3,14.64,2.05c-0.01,0.06-0.02,0.11-0.02,0.17c0,0.55,0.449,1,1,1c0.489,0,0.899-0.36,0.979-0.83v-0.01
								c15.94,2.76,26.71,6.07,32.34,8.07c3.11,1.11,4.66,1.82,4.66,1.82l-6.26,14.53c-1.061-0.31-2.12-0.62-3.18-0.91
								c-36.73-10.25-70.891-10.56-81.96-10.34c-2.41,0.05-3.73,0.12-3.73,0.12l-1.13-18c2.38,0,4.71,0.02,6.99,0.06
								C554.17,339.39,565.39,340.16,575.29,341.23z"/><path fill="#FFC962" d="M606.43,274.53c1.561-4.24,3.03-7.36,4.391-9.28c2.08-2.95,5.87-4.71,10.149-4.71
								c3.73,0,6.82,1.37,7.34,3.28c0.511,1.85-1.489,4.28-5.489,6.65C618.42,273.08,612.91,274.45,606.43,274.53z"/><path d="M610.82 265.25c-1.36 1.92-2.83 5.04-4.391 9.28 6.48-.08 11.99-1.45 16.391-4.06 4-2.37 6-4.8 5.489-6.65-.52-1.91-3.609-3.28-7.34-3.28C616.69 260.54 612.9 262.3 610.82 265.25zM605.34 274.59c1.51-4.16 3.09-7.69 4.66-9.92 7.34-10.42 30.17-3.34 13.33 6.66-4.98 2.95-11.021 4.18-17.32 4.21 0-.14-.02-.28-.08-.4-.02-.05-.05-.11-.09-.17-.03-.05-.08-.11-.13-.15-.04-.04-.09-.08-.14-.11-.04-.03-.08-.06-.12-.08C605.41 274.62 605.38 274.6 605.34 274.59zM605.92 275.94c-.07.2-.14.4-.2.6-.239 0-.47-.01-.71-.01C605.42 276.53 605.77 276.29 605.92 275.94z"/><path d="M605.84,274.97c0.04,0.06,0.07,0.12,0.09,0.17C605.91,275.08,605.88,275.02,605.84,274.97z"/><path d="M605.84,274.97c0.04,0.05,0.07,0.11,0.09,0.17c0.061,0.12,0.08,0.26,0.08,0.4c-0.33,0-0.67,0-1-0.01
								c0.11-0.32,0.221-0.63,0.33-0.94c0.04,0.01,0.07,0.03,0.11,0.04c0.04,0.02,0.09,0.05,0.12,0.08c0.05,0.03,0.1,0.07,0.14,0.11
								C605.76,274.86,605.81,274.92,605.84,274.97z"/><path d="M604.32,274.51c1.72-4.81,3.31-8.22,4.859-10.42c2.45-3.48,6.86-5.55,11.79-5.55c4.771,0,8.49,1.9,9.271,4.75
								c0.55,2-0.12,5.17-6.4,8.9c-4.859,2.88-10.939,4.35-18.06,4.35c-0.021,0-0.04,0-0.061,0c0.061-0.2,0.13-0.4,0.2-0.6
								c0.061-0.12,0.09-0.26,0.09-0.4c6.3-0.03,12.34-1.26,17.32-4.21c16.84-10-5.99-17.08-13.33-6.66
								c-1.57,2.23-3.15,5.76-4.66,9.92c-0.07-0.03-0.149-0.05-0.24-0.05c-0.01-0.01-0.02-0.01-0.029-0.01c-0.021,0-0.03,0-0.051,0
								c-0.01,0-0.01,0-0.02,0C604.77,274.53,604.55,274.52,604.32,274.51z"/><path fill="#FFC962" d="M605.78,276.54c7.12,0,13.2-1.47,18.06-4.35c6.28-3.73,6.95-6.9,6.4-8.9
								c-0.78-2.85-4.5-4.75-9.271-4.75c-4.93,0-9.34,2.07-11.79,5.55c-1.55,2.2-3.14,5.61-4.859,10.42
								c-7.391-0.22-15.82-2.09-23.34-5.22c-0.28-7.9-0.74-12.68-1.37-14.61c-1.04-3.12-4.181-5.15-8-5.15
								c-2.7,0-5.141,1.08-6.54,2.87c-0.91,1.17-1.83,3.22-1.04,6.32c0.95,3.71,6.67,8.26,15,11.91
								c0.489,14.74,0.29,35.11,0.229,40.05l-2.85-0.34c-0.29-0.03-0.57,0.05-0.78,0.24c-0.22,0.19-0.34,0.46-0.34,0.75v19.85
								c-15.021-4.16-28.26-11.74-38.58-21.66c-15.02-14.45-23.84-33.84-22.94-54.8c1.82-42.06,42.15-74.47,90.091-72.4
								c47.93,2.07,85.319,37.85,83.5,79.9c-1.261,29.13-20.99,53.63-48.931,65.25c-12.399,5.17-26.42,7.79-41.149,7.15
								c-0.5-0.02-1-0.05-1.5-0.08l4.17-20.34c0.06-0.27-0.01-0.56-0.17-0.79c-0.16-0.22-0.41-0.37-0.69-0.4l-2.57-0.3
								c0.91-4.56,4.69-23.04,9.2-36.17C605.74,276.54,605.76,276.54,605.78,276.54z"/><path d="M605.71 274.82c-.04-.04-.09-.08-.14-.11C605.62 274.74 605.67 274.78 605.71 274.82zM605.57 274.71c-.03-.03-.08-.06-.12-.08C605.49 274.65 605.53 274.68 605.57 274.71zM605.45 274.63c-.04-.01-.07-.03-.11-.04C605.38 274.6 605.41 274.62 605.45 274.63zM605.1 274.54c-.01-.01-.02-.01-.029-.01C605.08 274.53 605.09 274.53 605.1 274.54zM605.01 275.53c.33.01.67.01 1 .01 0 .14-.029.28-.09.4-.15.35-.5.59-.91.59-.01 0-.01 0-.01 0-.11 0-.21-.02-.31-.06C604.79 276.15 604.9 275.84 605.01 275.53z"/><path d="M605,274.53c0.01,0,0.01,0,0.02,0c0.021,0,0.03,0,0.051,0c0.01,0,0.02,0,0.029,0.01c0.091,0,0.17,0.02,0.24,0.05
								c-0.109,0.31-0.22,0.62-0.33,0.94c-0.33,0-0.66-0.01-1-0.03c0-0.1,0.021-0.2,0.061-0.3c0.02-0.05,0.04-0.1,0.06-0.15
								C604.31,274.73,604.65,274.53,605,274.53z"/><path d="M605 274.53c-.35 0-.69.2-.87.52.061-.18.12-.37.19-.54C604.55 274.52 604.77 274.53 605 274.53zM605 276.53c-.11 0-.22 0-.33-.01.01-.02.01-.04.021-.05C604.79 276.51 604.89 276.53 605 276.53zM605.01 275.53c-.109.31-.22.62-.319.94-.2-.06-.381-.19-.5-.37-.131-.18-.19-.39-.181-.6C604.35 275.52 604.68 275.53 605.01 275.53zM604.07 275.2c-.04.1-.061.2-.061.3-.01 0-.02 0-.04 0C604 275.4 604.04 275.3 604.07 275.2z"/><path d="M604.19,276.1c0.119,0.18,0.3,0.31,0.5,0.37c-0.011,0.01-0.011,0.03-0.021,0.05c-0.34,0-0.689-0.01-1.04-0.03
								c0.11-0.34,0.22-0.67,0.34-0.99c0.021,0,0.03,0,0.04,0C604,275.71,604.06,275.92,604.19,276.1z"/><path fill="#FFC962" d="M603.63 276.49c-4.52 13.35-8.26 31.73-9.1 35.98l-13.271-1.56c.05-4.47.26-24.51-.2-39.42C588.45 274.45 596.35 276.2 603.63 276.49zM595.78 334.54c.5.03 1 .06 1.5.08 14.729.64 28.75-1.98 41.149-7.15v.01l-12.21 24.42c-5.63-2-16.399-5.31-32.34-8.07L595.78 334.54z"/><path d="M599.95,314.2l-4.17,20.34c-0.34-0.02-0.67-0.04-1-0.06L598.97,314l-2.63-0.31c0.021-0.14,0.09-0.47,0.18-0.98
								l2.57,0.3c0.28,0.03,0.53,0.18,0.69,0.4C599.94,313.64,600.01,313.93,599.95,314.2z"/><path fill="#FFC962" d="M597.77,314.87l-4,19.53c-5.67-0.43-11.18-1.35-16.479-2.7v-19.24l2.75,0.32l15.3,1.8L597.77,314.87z
								"/><path fill="#FDA181" d="M597.25,425.25c3.25,0.5,2.5,8.25-7.5,17s-27.73,11.77-34.62,14.51
								c-4.189-3.41-10.06-7.6-13.51-10.02c0,0,10.63-28.74,13.63-25.99s2.5,14.5,2.5,14.5S594,424.75,597.25,425.25z"/><path d="M605.72 276.54c-4.51 13.13-8.29 31.61-9.2 36.17l-.989-.12c.87-4.4 4.609-22.76 9.14-36.07.11.01.22.01.33.01 0 0 0 0 .01 0C605.25 276.53 605.48 276.54 605.72 276.54zM593.77 334.4l4-19.53-2.43-.29v-.01c.47 0 .891-.33.98-.81 0-.01.01-.03.02-.07l2.63.31-4.189 20.48C594.44 334.46 594.1 334.43 593.77 334.4zM595.78 334.54l-1.9 9.29c-.32-.06-.649-.11-.979-.17l1.88-9.18C595.11 334.5 595.44 334.52 595.78 334.54z"/><path d="M594.53 312.47c.84-4.25 4.58-22.63 9.1-35.98.351.02.7.03 1.04.03-4.53 13.31-8.27 31.67-9.14 36.07L594.53 312.47zM596.52 312.71c-.09.51-.159.84-.18.98l-1-.12c0 0 .07-.34.19-.98L596.52 312.71z"/><path d="M594.36,313.38c0-0.03,0.06-0.34,0.17-0.91l1,0.12c-0.12,0.64-0.19,0.98-0.19,0.98l-0.99-0.12
								C594.35,313.43,594.36,313.4,594.36,313.38z"/><path d="M595.15 314.55c-.521-.1-.87-.58-.801-1.1l.99.12 1 .12c-.01.04-.02.06-.02.07-.09.48-.511.81-.98.81C595.28 314.57 595.22 314.56 595.15 314.55zM593.77 334.4c.33.03.671.06 1.011.08l-1.88 9.18c-.32-.05-.65-.11-.98-.16 0-.01 0-.03 0-.04L593.77 334.4zM581.26 310.91l13.271 1.56c-.11.57-.17.88-.17.91 0 .02-.011.05-.011.07l-13.109-1.53c.01-.03.01-.07.01-.11C581.25 311.78 581.25 311.47 581.26 310.91z"/><path fill="#FFC962" d="M577.29,331.7c5.3,1.35,10.81,2.27,16.479,2.7l-1.85,9.06c0,0.01,0,0.03,0,0.04
								c-4.49-0.75-9.37-1.44-14.64-2.05c0.01-0.03,0.01-0.07,0.01-0.11V331.7z"/><path d="M592.9 343.66c.33.06.659.11.979.17v.01c-.08.47-.49.83-.979.83-.551 0-1-.45-1-1 0-.06.01-.11.02-.17C592.25 343.55 592.58 343.61 592.9 343.66zM580.98 269.29c7.52 3.13 15.949 5 23.34 5.22-.07.17-.13.36-.19.54-.02.05-.04.1-.06.15-.03.1-.07.2-.101.3-7.93-.27-16.13-2.33-22.939-5.11-.011-.14-.011-.28-.021-.42 0-.01 0-.02 0-.03C581 269.72 580.99 269.5 580.98 269.29z"/><path d="M581.03 270.39c6.81 2.78 15.01 4.84 22.939 5.11-.12.32-.229.65-.34.99-7.28-.29-15.18-2.04-22.57-5C581.05 271.12 581.04 270.75 581.03 270.39zM581.25 311.81c0 .04 0 .08-.01.11l-.99-.12c0 0 .01-.36.01-1.01l1 .12C581.25 311.47 581.25 311.78 581.25 311.81z"/><path d="M580.26,310.79c0.061-4.7,0.271-24.81-0.21-39.72c0.34,0.14,0.681,0.28,1.01,0.42c0.46,14.91,0.25,34.95,0.2,39.42
								L580.26,310.79z"/><path d="M581.06,271.49c-0.329-0.14-0.67-0.28-1.01-0.42c0-0.04-0.01-0.07-0.01-0.1c0.19-0.01,0.38-0.07,0.54-0.18
								s0.28-0.26,0.35-0.44c0.03,0.02,0.061,0.03,0.101,0.04C581.04,270.75,581.05,271.12,581.06,271.49z"/><path d="M580.93 270.35c.051-.12.08-.25.08-.38.01.14.01.28.021.42C580.99 270.38 580.96 270.37 580.93 270.35zM580.98 269.29c.01.21.02.43.029.65-.01-.41-.3-.75-.649-.9.01 0 .029 0 .04.01C580.59 269.13 580.79 269.21 580.98 269.29zM580.01 269.97c.3.13.61.26.92.38-.069.18-.189.33-.35.44s-.35.17-.54.18C580.03 270.63 580.02 270.3 580.01 269.97zM580.26 310.79c0 .65-.01 1.01-.01 1.01l-1-.12c0-.16.01-.5.01-1L580.26 310.79zM595.34 314.58l-15.3-1.8c.06.01.13.02.2.02h.01c.51 0 .93-.38.99-.88l13.109 1.53c-.069.52.28 1 .801 1.1.069.01.13.02.189.02V314.58zM579.26 310.68c.061-4.94.26-25.31-.229-40.05.189.09.39.17.59.26.14.06.29.12.43.18.48 14.91.271 35.02.21 39.72L579.26 310.68z"/><path d="M579.97 268.97c.13-.01.271.02.391.07.35.15.64.49.649.9 0 .01 0 .02 0 .03 0 .13-.029.26-.08.38-.31-.12-.62-.25-.92-.38C580 269.63 579.99 269.3 579.97 268.97zM580.05 271.07c-.14-.06-.29-.12-.43-.18.12.05.26.08.39.08.01 0 .021 0 .03 0C580.04 271 580.05 271.03 580.05 271.07z"/><path d="M580.01,269.97c-0.31-0.13-0.609-0.27-0.92-0.4c0.101-0.23,0.28-0.41,0.5-0.51c0.061-0.03,0.12-0.05,0.18-0.06
								c0.07-0.02,0.131-0.03,0.2-0.03C579.99,269.3,580,269.63,580.01,269.97z"/><path d="M579.77 269c-.06.01-.119.03-.18.06C579.65 269.04 579.71 269.01 579.77 269zM579.62 270.89c-.37-.16-.601-.5-.61-.88 0-.08 0-.16.021-.24.01-.07.029-.13.06-.19 0-.01 0-.01 0-.01.311.13.61.27.92.4.01.33.021.66.03 1-.01 0-.021 0-.03 0C579.88 270.97 579.74 270.94 579.62 270.89zM579.25 311.68l1 .12.99.12c-.061.5-.48.88-.99.88h-.01c-.07 0-.141-.01-.2-.02-.46-.1-.8-.51-.79-.99C579.25 311.78 579.25 311.74 579.25 311.68z"/><path d="M579.01 270.01c.01.38.24.72.61.88-.2-.09-.4-.17-.59-.26C579.02 270.42 579.02 270.21 579.01 270.01zM579.09 269.58c-.03.06-.05.12-.06.19C579.04 269.71 579.06 269.64 579.09 269.58z"/><path fill="#FFC962" d="M578.95,268.41c-7.101-3.26-12.24-7.26-12.98-10.19c-0.47-1.86-0.239-3.4,0.681-4.59
								c1.02-1.31,2.88-2.1,4.96-2.1c2.229,0,5.17,0.99,6.1,3.78C578.09,256.46,578.6,259.68,578.95,268.41z"/><path d="M576.29,311.33l2.96,0.35c0,0.06,0,0.1,0,0.11c-0.01,0.48,0.33,0.89,0.79,0.99l-2.75-0.32v19.24
								c-0.34-0.08-0.67-0.16-1-0.25V311.33z"/><path d="M576.29 341.34v-9.89c.33.09.66.17 1 .25v9.64c0 .04 0 .08-.01.11C576.95 341.41 576.62 341.38 576.29 341.34zM576.41 310.34l2.85.34c0 .5-.01.84-.01 1l-2.96-.35v20.12c-.33-.09-.67-.18-1-.27v-19.85c0-.29.12-.56.34-.75C575.84 310.39 576.12 310.31 576.41 310.34z"/><path d="M576.29,331.45v9.89c-0.33-0.04-0.67-0.07-1-0.11v-10.05C575.62,331.27,575.96,331.36,576.29,331.45z"/><path d="M576.29,341.34c0.33,0.04,0.66,0.07,0.99,0.11c-0.05,0.5-0.48,0.89-0.99,0.89c-0.55,0-1-0.44-1-0.99v-0.12
								C575.62,341.27,575.96,341.3,576.29,341.34z"/><path fill="#FFC962" d="M575.29,331.18v10.05c-9.9-1.07-21.12-1.84-33.68-2.05l-4.9-29.66
								C547.03,319.44,560.27,327.02,575.29,331.18z"/><polygon fill="#E22953" points="572.5 106.5 570.3 152 560.02 106.5"/><path fill="#295FC5" d="M545.33,373.1c9.87,0.27,38.01,1.64,66.88,8.67l-0.21,0.88l-2.5,12.85c-39.2-7.5-64-8.5-64-8.5
								l-0.19-13.17L545.33,373.1z"/><path d="M577.71,255.31c-0.93-2.79-3.87-3.78-6.1-3.78c-2.08,0-3.94,0.79-4.96,2.1c-0.92,1.19-1.15,2.73-0.681,4.59
								c0.74,2.93,5.88,6.93,12.98,10.19C578.6,259.68,578.09,256.46,577.71,255.31z M565,258.47c-2.33-9.19,11.33-10.47,13.66-3.47
								c0.649,1.96,1.06,7.3,1.31,13.97c-0.069,0-0.13,0.01-0.2,0.03c-0.06,0.01-0.119,0.04-0.18,0.06
								c-0.22,0.1-0.399,0.28-0.5,0.51C571.43,266.15,565.87,261.89,565,258.47z"/><path d="M578.66,255c-2.33-7-15.99-5.72-13.66,3.47c0.87,3.42,6.43,7.68,14.09,11.1c0,0,0,0,0,0.01
								c-0.03,0.06-0.05,0.13-0.06,0.19c-0.021,0.08-0.021,0.16-0.021,0.24c0.01,0.2,0.01,0.41,0.021,0.62
								c-8.33-3.65-14.05-8.2-15-11.91c-0.79-3.1,0.13-5.15,1.04-6.32c1.399-1.79,3.84-2.87,6.54-2.87c3.819,0,6.96,2.03,8,5.15
								c0.63,1.93,1.09,6.71,1.37,14.61c-0.19-0.08-0.391-0.16-0.58-0.24c-0.011-0.01-0.03-0.01-0.04-0.01
								c-0.12-0.05-0.261-0.08-0.391-0.07C579.72,262.3,579.31,256.96,578.66,255z"/><path fill="#A9D9FF" d="M541.62,446.74c3.45,2.42,9.32,6.61,13.51,10.02c2.521,2.05,4.44,3.81,4.87,4.74
								c0.33,0.72-2.74,3.58-7.82,7.62c-7.529-7.72-24.02-17.73-24.02-17.73c6.24-3.89,10.59-6.64,10.59-6.64
								S539.88,445.52,541.62,446.74z"/><path fill="#3E89FC" d="M621,369l-5.25,13.65c-1.18-0.31-2.36-0.6-3.54-0.88c-28.87-7.03-57.01-8.4-66.88-8.67
								c-2.39-0.06-3.71-0.06-3.71-0.06l-2.12-14.79l-0.02-1.25c11.069-0.22,45.229,0.09,81.96,10.34L621,369z"/><polygon fill="#E22953" points="507.61 149.14 516.5 190 490.9 153.64"/><polygon fill="#E22953" points="502.5 319.5 466 347.75 459 334.72"/><polygon fill="#E22953" points="484 258.47 426.81 250.53 431 232.5"/><path fill="#295FC5" d="M485,513.5c-8.5,1.75-34.75-16-34.75-16l-0.77-0.24c0.68-2.26,1.16-4.22,1.27-5.51
								c0.25-2.93-2.81-11.39-5.87-18.98c9.77,14.59,25.7,34.67,42.22,39.97C486.21,513.14,485.5,513.4,485,513.5z"/><path fill="#1E1950" d="M429.31,864.29c12.83,3.61,24.36,1.19,28.66,0.01l0.53,4.95c0,0,29.25,6,35,8.02
								c5.75,2.021,4.75,12.98,4.75,12.98L427.5,886L429.31,864.29z"/><path fill="#403882" d="M421.54,605.03v-0.011c4.37-0.649,8.72-1.479,12.96-2.52c36.75-9,38.25-12.5,38.25-12.5
								s0.92,105.83-8.08,162.33c0,0-1.42,101.92-4.92,111.42c0,0-0.63,0.23-1.78,0.55c-4.3,1.181-15.83,3.601-28.66-0.01
								c-0.6-0.16-1.2-0.34-1.81-0.54c0,0,0.33-94.75,1.83-107.75s-16.42-114.75-16.42-114.75l-0.62-0.16
								C417.67,620.16,421.54,605.03,421.54,605.03z"/><path fill="#1E1950" d="M418.5,404.25c0,0,27.44,4.99,11.8,27.43c-5.32,0.28-13.13,0.96-19.04,1.51
								C406.51,433.64,403,434,403,434l-2.73-10.75l-1.52-6C398.75,417.25,417.75,408.75,418.5,404.25z"/><polygon fill="#295FC5" points="416.92 452.67 416.92 458 399.95 447.26"/><path fill="#A9D9FF" d="M411.26,433.19l5.66,19.48l-16.97-5.41L396,446l7-12C403,434,406.51,433.64,411.26,433.19z"/><path fill="#FDA181" d="M392.98,382.63c0.92-0.2,1.36-1.79,0.97-3.54c-0.38-1.76-1.44-3.02-2.36-2.82s-1.36,1.79-0.98,3.54
								C391,381.57,392.06,382.83,392.98,382.63z M403.2,376.61c0.39,1.76,1.45,3.02,2.37,2.82c0.92-0.2,1.36-1.79,0.97-3.55
								c-0.38-1.75-1.44-3.02-2.36-2.81C403.26,373.27,402.82,374.85,403.2,376.61z M401.18,382.67c0.12,0.5,2.37,9.67,4.32,12.83
								l4.33-5.5C406.12,388.38,401.47,383,401.18,382.67z M362.5,394.75c0.5-8.5,8.5-7.5,8.5-7.5l0.35-6.5
								c0,0,7.66-4.94,12.95-12.63c0.36-0.1,0.69-0.19,1-0.26c1.08-0.15,3.49-0.34,5.01-0.01c0.54,0.11,1.07-0.23,1.19-0.77
								c0.11-0.54-0.23-1.07-0.77-1.19c-1.64-0.35-3.79-0.22-4.94-0.1c2.99-5.18,4.65-11.38,2.46-18.04c0,0,13.6,0.24,18.54,14.14
								c-2.95,0.55-5.15,1.67-5.25,1.72c-0.49,0.26-0.68,0.86-0.43,1.35c0.18,0.34,0.53,0.54,0.89,0.54c0.16,0,0.31-0.04,0.46-0.11
								c0.02-0.01,2.1-1.08,4.82-1.57c0.05-0.01,0.09-0.02,0.14-0.02c1.06,3.22,2.23,6.79,3.4,10.43
								c4.1,12.81,8.25,26.62,7.68,30.02c-0.75,4.5-19.75,13-19.75,13s-5.5,1.85-12.75-1.13c0,0,4.44,6.07,14.27,7.13L403,434l-7,12
								l-18.75-5.75c8-19.25-2.75-38.75-2.75-38.75S362,403.25,362.5,394.75z M404.87,407.83c3.46-2.33,3.8-7.83,3.8-7.83
								s-8.17,2.67-15.5,2C393.17,402,401.41,410.17,404.87,407.83z"/><path fill="#F77556" d="M409.83,390l-4.33,5.5c-1.95-3.16-4.2-12.33-4.32-12.83C401.47,383,406.12,388.38,409.83,390z"/><path fill="#FFF" d="M408.67,400c0,0-0.34,5.5-3.8,7.83c-3.46,2.34-11.7-5.83-11.7-5.83
								C400.5,402.67,408.67,400,408.67,400z"/><path d="M411.21,363.66c-1.16-0.14-2.43-0.08-3.79,0.14c-0.1-0.32-0.21-0.64-0.31-0.96c-0.04-0.11-0.07-0.23-0.11-0.34
								c-0.07-0.21-0.14-0.41-0.21-0.61c0.05-0.01,0.09-0.02,0.14-0.03c1.61-0.29,3.12-0.35,4.52-0.18
								c0.54,0.06,0.94,0.56,0.87,1.11C412.26,363.33,411.76,363.73,411.21,363.66z"/><path fill="#231F20" d="M405.57,379.43c-0.92,0.2-1.98-1.06-2.37-2.82c-0.38-1.76,0.06-3.34,0.98-3.54
								c0.92-0.21,1.98,1.06,2.36,2.81C406.93,377.64,406.49,379.23,405.57,379.43z"/><path d="M407.28,363.82c-2.72,0.49-4.8,1.56-4.82,1.57c-0.15,0.07-0.3,0.11-0.46,0.11c-0.36,0-0.71-0.2-0.89-0.54
								c-0.25-0.49-0.06-1.09,0.43-1.35c0.1-0.05,2.3-1.17,5.25-1.72c0.07,0.2,0.14,0.4,0.21,0.61c0.04,0.11,0.07,0.23,0.11,0.34
								c0.1,0.32,0.21,0.64,0.31,0.96C407.37,363.8,407.33,363.81,407.28,363.82z"/><path fill="#F77556" d="M398.75,417.25l1.52,6c-9.83-1.06-14.27-7.13-14.27-7.13C393.25,419.1,398.75,417.25,398.75,417.25z"/><path fill="#A9D9FF" d="M396,446l-9.67,15.33l-9.76-15.32l-0.01-0.01l-3.26-5.11v-0.01c2.45-0.39,3.95-0.63,3.95-0.63
								L396,446z"/><path fill="#231F20" d="M391.59,376.27c0.92-0.2,1.98,1.06,2.36,2.82c0.39,1.75-0.05,3.34-0.97,3.54
								c-0.92,0.2-1.98-1.06-2.37-2.82C390.23,378.06,390.67,376.47,391.59,376.27z"/><polygon fill="#295FC5" points="387 470 376.57 446.01 386.33 461.33 396 446 399.95 447.26"/><path d="M390.31,367.85c-1.52-0.33-3.93-0.14-5.01,0.01c-0.31,0.07-0.64,0.16-1,0.26c0.29-0.41,0.56-0.83,0.83-1.25
								c0,0,0,0,0.01,0c0.22-0.35,0.44-0.71,0.65-1.08c1.15-0.12,3.3-0.25,4.94,0.1c0.54,0.12,0.88,0.65,0.77,1.19
								C391.38,367.62,390.85,367.96,390.31,367.85z"/><path d="M384.3,368.12c-2.28,0.63-5.36,1.73-6.33,2.74c-0.19,0.21-0.46,0.31-0.72,0.31c-0.25,0-0.5-0.09-0.69-0.28
								c-0.4-0.38-0.41-1.01-0.03-1.41c1.89-2,7.71-3.43,8.37-3.58c0.05-0.01,0.1-0.02,0.15-0.03c0.12-0.01,0.38-0.05,0.74-0.08
								c-0.21,0.37-0.43,0.73-0.65,1.08c-0.01,0-0.01,0-0.01,0C384.86,367.29,384.59,367.71,384.3,368.12z"/><path fill="#3E89FC" d="M354.31,588.5c0.05-2-3.73-11.1-3.73-11.1l2.31-1.091c0,0,13.86-29.56,12.36-37.56
								c-0.68-3.65-12.15-31.69-18.25-46.46c-2.24-5.41-3.75-9.04-3.75-9.04l-0.8-0.16l-5.89,28.83L327.5,529l19.91,37.11
								c-11.53,2.859-19.06,8.13-22.59,11.08c-9.32-15.091-26.39-42.94-26.57-44.94c-0.25-2.75,34-82.25,35.25-83.75
								c0.29-0.35,2.83-0.99,6.55-1.75c9.23-1.91,25.72-4.64,33.25-5.87v0.01l3.26,5.11l0.01,0.01L387,470l12.95-22.74L416.92,458
								v-5.33l-5.66-19.48c5.91-0.55,13.72-1.23,19.04-1.51c3.21-0.16,5.51-0.18,5.95,0.07c1.75,1,45,46,48,45.75
								c2.13-0.18,28.67-16.59,43.91-26.11c0,0,16.49,10.01,24.02,17.73c-16.51,13.14-54.24,38.74-65.08,43.62
								c-16.52-5.3-32.45-25.38-42.22-39.97c3.06,7.59,6.12,16.05,5.87,18.98c-0.11,1.29-0.59,3.25-1.27,5.51
								c-2.33,7.75-6.98,18.99-6.98,18.99s24,43.75,30.25,73.75c0,0-1.5,3.5-38.25,12.5c-4.24,1.04-8.59,1.87-12.96,2.52
								c-33.51,5.07-68.47,0.011-68.47,0.011C353.79,597.49,354.28,589.52,354.31,588.5z"/><path fill="#1E1950" d="M362.5,394.75c-0.5,8.5,12,6.75,12,6.75s10.75,19.5,2.75,38.75c0,0-1.5,0.24-3.95,0.63
								c-7.53,1.23-24.02,3.96-33.25,5.87v-0.01c-0.03,0-9.05-0.01-10.3-14.24c-1.25-14.25,16.75-21.5,18.5-30.25s-9.75-16-7.75-30
								s13.25-31.75,45.5-37s36.88,23.21,24.82,38.98c-1.17-3.64-2.34-7.21-3.4-10.43c1.36-0.22,2.63-0.28,3.79-0.14
								c0.55,0.07,1.05-0.33,1.11-0.87c0.07-0.55-0.33-1.05-0.87-1.11c-1.4-0.17-2.91-0.11-4.52,0.18
								c-0.05,0.01-0.09,0.02-0.14,0.03c-4.94-13.9-18.54-14.14-18.54-14.14c2.19,6.66,0.53,12.86-2.46,18.04
								c-0.36,0.03-0.62,0.07-0.74,0.08c-0.05,0.01-0.1,0.02-0.15,0.03c-0.66,0.15-6.48,1.58-8.37,3.58
								c-0.38,0.4-0.37,1.03,0.03,1.41c0.19,0.19,0.44,0.28,0.69,0.28c0.26,0,0.53-0.1,0.72-0.31c0.97-1.01,4.05-2.11,6.33-2.74
								c-5.29,7.69-12.95,12.63-12.95,12.63l-0.35,6.5C371,387.25,363,386.25,362.5,394.75z"/><path fill="#A9D9FF" d="M347.41,566.11l5.48,10.199l-2.31,1.091l-16.89,7.97l-2.94,1.38c0,0-2.41-3.87-5.93-9.56
								C328.35,574.24,335.88,568.97,347.41,566.11z"/><path fill="#FDA181" d="M350.58,577.4c0,0,3.78,9.1,3.73,11.1c-0.03,1.02-0.52,8.99-1.24,16.53
								c-0.69,7.25-1.59,14.09-2.49,13.97c-0.69-0.09-2.42-1.14-4.48-2.87c-3.42-2.89-7.73-7.67-9.6-13.13
								c-3-8.75-2.81-17.63-2.81-17.63L350.58,577.4z"/><path fill="#295FC5" d="M342,766.5c0.75-14.25,3.71-148.49,4.1-150.37c2.06,1.73,3.79,2.78,4.48,2.87
								c0.9,0.12,1.8-6.72,2.49-13.97c0,0,34.96,5.06,68.47-0.011v0.011c0,0-3.87,15.13-9.25,36.06
								C400.73,685.98,382.22,757.53,380,763.5c0,0-1.75,40.68-23.5,92.93c0,0-0.8,0.261-2.25,0.57
								c-4.44,0.96-14.99,2.44-27.47-1.33c-1.4-0.43-2.83-0.92-4.28-1.49C322.5,854.18,341.25,780.75,342,766.5z"/><path fill="#1E1950" d="M326.78,855.67c12.48,3.771,23.03,2.29,27.47,1.33l-2.75,27.75L283.75,886c0,0,0-8.25,2-12.25
								s36.75-10.25,36.75-10.25L326.78,855.67z"/><path fill="#295FC5" d="M343.25,483.25c0,0,1.51,3.63,3.75,9.04l-0.02,0.01l-10.42,19.62l5.89-28.83L343.25,483.25z"/></g><path fill="#FFF" d="M663 244.333c-.982-9.347-9.184-24.136-16.664-29.336-2.12-1.474-9.193-4.898-11.867-2.529-4.381 3.881 2.108 10.578 4.531 13.198 4.043 4.373 8.498 8.831 11.185 13.966 1.997 3.815 2.72 8.865 5.316 12.2 7.28 9.35 11.009-2.475 6.832-9.499M660.333 270.333c-.929 2.296-3.698 11.24-2.679 14 1.558 4.217 6.326 5.344 9.245 1.333 4.61-6.338-5.195-20.189-7.899-12"/></svg>