<svg xmlns="http://www.w3.org/2000/svg" enable-background="new 0 0 2793 2793" viewBox="0 0 2793 2793"><path d="M2088.366,2114.141c-5.779-37.639-17.773-73.237-37.772-106.017c-17.037-27.924-34.575-55.508-52.947-82.563
				c-4.507-6.637-8.758-13.239-10.175-21.375c-0.615-3.531-2.019-6.987-3.469-10.299c-6.543-14.945-8.721-30.605-8.418-46.799
				c0.301-16.08,3.239-31.803,6.104-47.516c4.106-22.515,4.314-44.86-1.992-66.967c-3.283-11.51-6.655-23.066-11.078-34.166
				c-10.273-25.781-14.1-52.572-13.519-80.057c0.476-22.524,0.7-45.064,3.12-67.528c2.072-19.233,5.526-38.06,12.346-56.228
				c3.06-8.152,5.681-16.471,8.385-24.753c6.368-19.499,6.751-39.202,2.149-59.14c-3.524-15.27-8.77-29.954-14.634-44.43
				c-5.6-13.826-10.331-27.911-13.706-42.446c-6.654-28.654-6.444-56.853,4.792-84.556c3.951-9.742,6.822-19.916,10.375-29.825
				c6.71-18.716,9.398-38.036,8.927-57.839c-0.519-21.803-0.705-43.609-2.825-65.361c-2.127-21.832-6.66-43.02-14.694-63.457
				c-7.858-19.988-17.408-39.137-28.201-57.684c-15.344-26.369-30.732-52.714-46.019-79.117
				c-7.293-12.595-13.138-25.873-18.524-39.39c-8.225-20.643-11.489-41.863-9.406-64.051c1.602-17.062,1.312-34.163-2.296-51.025
				c-5.563-25.994-18.758-47.801-37.083-66.724c-15.983-16.505-35.246-27.783-56.644-35.767
				c-29.478-10.998-59.555-15.637-90.901-10.027c-15.365,2.75-29.178,8.533-41.377,18.259c-6.845,5.457-13.101,11.484-18.281,18.548
				c-3.167-1.99-4.337-5.194-6.19-7.837c-5.008-7.146-9.976-14.299-15.948-20.715c-27.134-29.154-59.101-51.452-95.692-67.027
				c-30.306-12.899-62.158-20.006-94.786-23.6c-32.01-3.526-63.912-2.138-95.519,4.03c-42.278,8.25-81.261,24.273-115.963,50.14
				c-12.62,9.406-23.73,20.308-33.228,32.867c-20.91,27.649-32.197,59.185-36.872,93.17c-2.227,16.187-3.019,32.568-4.651,48.842
				c-1.523,15.195-3.93,30.215-8.238,44.945c-4.754,16.256-13.61,29.502-26.709,40.158c-9.898,8.052-20.223,15.422-31.454,21.479
				c-12.461,6.72-25.018,13.263-37.447,20.042c-10.87,5.929-21.278,12.498-29.917,21.601c-12.471,13.141-16.929,28.265-12.91,46.094
				c3.283,14.566,8.533,28.504,12.713,42.78c3.06,10.449,6.476,20.829,8.852,31.437c4.254,18.995,0.874,36.085-14.202,49.777
				c-4.029,3.659-7.779,7.657-11.393,11.735c-23.411,26.42-31.474,56.534-22.168,91.029c3.798,14.077,8.811,27.642,14.672,40.956
				c3.214,7.301,6.468,14.645,8.861,22.235c6.591,20.896,0.849,38.595-14.98,53.291c-5.061,4.698-10.367,9.133-15.421,13.837
				c-7.759,7.222-14.475,15.379-19.957,24.423c-9.363,15.446-13.634,31.98-9.563,50.067c1.604,7.127,4.037,13.969,7.295,20.469
				c3.089,6.164,6.555,12.142,9.92,18.166c6.204,11.106,11.996,22.407,16.564,34.303c7.377,19.211,7.574,38.293-0.983,57.223
				c-2.542,5.623-5.111,11.232-7.694,16.836c-4.256,9.229-8.815,18.331-12.747,27.696c-9.354,22.281-12.681,45.367-8.33,69.337
				c1.232,6.79,2.25,13.625,3.698,20.367c3.378,15.725,2.715,31.013-4.036,45.844c-1.802,3.957-3.307,8.066-4.694,12.19
				c-6.28,18.67-4.949,36.464,6.267,53.106c1.822,2.704,3.54,5.516,4.951,8.449c1.977,4.109,2.012,7.999-0.574,12.279
				c-11.647,19.273-22.568,38.97-34.615,58.019c-14.947,23.635-30.484,46.916-44.136,71.351
				c-7.263,12.999-14.485,26.025-21.468,39.176c-12.94,24.37-26.455,48.467-37.228,73.918
				c-6.364,15.034-12.229,30.202-15.291,46.429c-5.024,26.631-3.021,52.86,3.253,78.881c4.284,17.768,14.16,31.786,30.762,40.244
				c8.411,4.285,17.269,7.523,26.531,9.674c11.722,2.722,23.619,3.927,35.555,5.141c26.996,2.745,53.728,0.822,80.307-4.039
				c4.951-0.906,9.582-3,13.877,1.899c1.638,1.869,4.849,1.001,7.371,1.081c42.88,1.352,85.76,2.724,128.642,4.01
				c37.069,1.112,74.144,2.034,111.21,3.199c55.963,1.759,111.92,3.685,167.881,5.487c45.423,1.463,90.848,2.875,136.274,4.259
				c56.329,1.715,112.659,3.357,168.988,5.068c47.243,1.435,94.485,2.912,141.727,4.394c12.355,0.388,24.704,0.966,37.061,1.279
				c14.537,0.368,29.079,0.517,43.617,0.821c3.593,0.075,6.494-0.616,7.356-4.739c0.347-1.659,1.713-2.288,3.244-2.207
				c2.9,0.155,5.817,0.319,8.682,0.765c16.896,2.625,33.911,4.128,50.942,5.451c13.42,1.042,26.764,1.296,40.222-0.75
				c12.314-1.873,24.021-5.535,35.761-9.309c23.647-7.601,38.857-23.662,45.671-47.271
				C2090.557,2158.505,2091.753,2136.197,2088.366,2114.141z M1942.595,1734.431c-3.473,9.136-6.592,18.39-8.448,28.019v0
				c0.226,8.726,0.451,17.453,0.677,26.179h0c1.516,1.298,1.863,3.032,1.766,4.898c-0.053,1.027-0.21,2.21-1.459,2.321
				c-0.544,0.049-1.467-0.589-1.682-1.129c-0.514-1.288-0.709-2.704-1.033-4.068c-0.245-2.986-3.232-5.294-2.132-8.613
				c-2.659-13.099-1.182-25.927,2.555-38.598c1.125-3.815,2.28-7.622,3.518-11.401c3.747-11.435,3.283-22.873-0.384-34.154
				c-1.894-5.827-4.211-11.573-6.923-17.065c-4.335-8.781-7.799-17.887-11.253-27.02c-3.802-10.054-5.009-20.315-2.879-30.904
				c0.757-11.735,2.473-23.344,4.531-34.91c-0.113-2.562-1.131-5.313,1.52-7.299c1.584,2.307,1.427,4.75,0.561,7.247
				c0.852,7.513,0.574,15.076-0.601,22.455c-1.587,9.958-1.872,19.921-1.901,29.937c4.976,13.596,10.253,27.041,17.378,39.719
				c4.273,7.601,7.302,15.82,8.749,24.428C1946.859,1714.608,1946.306,1724.67,1942.595,1734.431z M1869.704,964.542
				c0.324-0.235,1.661,0.551,2.248,1.147c0.67,0.681,1.024,1.674,1.516,2.532c0,0,0,0,0,0.001l0.001,0
				c2.472,2.688,4.931,5.386,6.46,8.769c3.495,3.988,7.155,7.86,9.062,12.958v0c0,0,0,0,0,0c3.778,3.957,6.508,8.64,9.105,13.387
				c13.323,24.348,22.323,50.125,26.346,77.681c2.34,16.031,0.597,31.788-1.642,47.577c-1.475,10.401-3.897,20.588-6.935,30.669
				c-7.844,26.033-13.702,52.502-16.491,79.595c-0.019,12.396-0.038,24.793-0.057,37.189c0.194,1.979,0.387,3.958,0.581,5.937
				c2.484,6.501,3.53,13.281,3.921,20.188c0.193,1.16,0.385,2.32,0.578,3.48v0c1.5,1.475,1.761,3.265,1.332,5.231
				c5.064,22.729,14.204,43.975,23.613,65.134c6.237,14.025,9.815,28.712,10.33,44.097c0.194,5.795,0.197,11.58-1.026,17.291
				c0.481,2.678,0.34,5.228-1.531,7.42c-0.231,1.164-0.461,2.328-0.692,3.492c0,0,0,0,0,0c0.377,1.972,0.082,3.74-1.54,5.109
				c0.237,0.586,0.102,1.069-0.406,1.446c0,0,0,0,0,0c-2.682,10.637-5.345,21.278-8.058,31.906
				c-0.689,2.701-0.275,5.749-2.445,7.999c-0.214,1.916-0.428,3.831-0.642,5.747c-0.044,1.464-0.088,2.927-0.132,4.392c0,0,0,0,0,0
				c0,0,0,0,0,0c0.413,2.959-1.34,4.969-2.762,7.452c-1.37-1.976-1.31-3.636-0.941-5.336c-0.197-3.796-1.166-7.69,1.422-11.13
				c0,0,0,0,0,0s0,0,0,0c0.236-1.296,0.473-2.593,0.709-3.889c1.126-12.779,4.609-25.015,8.56-37.144
				c-0.206-2.527,0.328-4.848,1.909-6.878c-0.25-0.675-0.149-1.292,0.301-1.853c-0.37-3.302,0-6.469,1.713-9.392
				c0.564-13.836-0.054-27.545-3.768-41.009c-1.645-5.965-3.793-11.71-6.174-17.401c-6.155-14.712-12.987-29.171-17.359-44.566
				c-2.273-8.002-5.051-15.916-5.475-24.344c-2.488-5.86-3.25-12.061-3.627-18.339c-0.244-1.927-0.488-3.855-0.732-5.782v0
				c-2.228-3.625-2.093-7.581-1.624-11.584c-0.168-3.401-0.336-6.803-0.504-10.205c0-0.001,0-0.002,0-0.002
				c-1.759-6.981-1.75-13.964-0.007-20.947c-0.534-16.097,2.206-31.85,5.511-47.471c2.928-13.836,6.405-27.568,10.055-41.235
				c4.332-16.219,6.765-32.734,7.791-49.411c0.874-14.209-1.31-28.222-4.629-42.077c-5.872-24.515-15.224-47.616-27.559-69.553
				c-3.868-3.747-6.153-8.529-8.637-13.181c-2.933-2.445-4.392-5.787-5.638-9.259c-0.276-0.677-0.552-1.353-0.827-2.03v0
				c-0.298-0.158-0.689-0.245-0.877-0.488C1869.224,966.818,1868.202,965.635,1869.704,964.542z M1845.301,1485.025
				c1.976,1.352,2.374,3.328,2.187,5.535c-0.05,0.504,0.03,0.95,0.18,1.364c-0.113-0.429-0.172-0.883-0.179-1.361
				c1.116,0.914,1.681,2.081,1.601,3.539c0.206,1.14,0.412,2.281,0.617,3.421c0,0.001,0,0.002,0,0.004
				c1.945,3.833,2.437,7.822,1.687,12.707c-0.083,0.539-0.767,0.741-1.118,0.324c-2.125-2.523-2.451-5.143-2.669-7.811
				c-1.509-5.089-3.017-10.178-4.526-15.268c-0.453-0.491-0.62-1.065-0.502-1.722v0c-3.43-6.734-6.86-13.468-10.291-20.202
				c-1.382-1.87-2.987-3.615-3.353-6.048c-1.822-1.066-2.78-2.785-3.527-4.663c-2.982-2.336-5.232-5.231-6.679-8.74
				c-0.895-0.449-1.624-1.018-1.582-2.154c0,0,0,0,0,0c0,0,0,0,0,0c-0.466-0.588-0.931-1.177-1.397-1.765
				c-0.82-0.837-1.64-1.674-2.46-2.511c0,0,0,0,0,0c-3.462-1.731-6.379-4.384-8.431-7.666l-1.402-2.243
				c-1.137-0.564-2.201-1.199-2.462-2.596c-1.709-0.277-2.767-1.463-3.787-2.698c-3.678-1.322-6.338-4.041-9.091-6.632
				c-1.822-0.793-3.586-1.655-4.421-3.643c-0.656-0.473-1.312-0.944-1.968-1.416v0c0,0,0,0,0,0
				c-3.208-1.469-6.297-3.109-8.544-5.957c0,0,0,0,0,0c-2.019,0.12-3.175-1.277-4.421-2.515c-0.001-0.001-0.001-0.001-0.003-0.002
				c0,0,0,0,0,0.001c-1.927-0.016-3.123-1.415-4.54-2.404c0,0,0-0.001,0-0.002c-0.001,0-0.001,0-0.002,0
				c-2.808-1.371-5.616-2.743-8.424-4.114c0,0,0-0.001,0-0.001c0,0,0,0,0,0.001c-2.548-0.834-5.395-1.084-7.079-3.613
				c-0.634,0.041-1.206-0.121-1.72-0.488c-2.643,0.517-4.492-1.405-6.713-2.185c-3.23-1.016-6.701-1.465-9.313-3.942
				c-1.606-0.114-3.26-0.122-4.071-1.919c-1.263-0.298-2.526-0.595-3.786-0.892c0,0,0,0,0,0c-3.358-0.775-6.867-1.182-9.451-3.854
				c-0.475,0.085-0.909-0.01-1.302-0.286c-3.737-0.206-7.04-1.359-9.505-4.346c-0.654-0.134-1.667-0.057-1.893-0.442
				c-0.756-1.289,0.349-1.585,1.303-1.722c2.169-0.312,4.087,0.297,5.726,1.76c1.482,0.33,3.173,0.245,3.946,1.985
				c0,0,0,0.001,0.001,0.001c0,0,0,0,0,0c1.423,0.384,2.846,0.768,4.27,1.153c-0.001,0.001-0.002,0.002-0.004,0.003
				c0.002-0.001,0.004-0.001,0.005-0.002c3.037,1.06,6.511,1.072,8.889,3.71c0,0,0,0.001-0.001,0.001c0,0,0.001-0.001,0.001-0.001
				c0.735-0.078,1.391,0.116,1.967,0.58c2.208,0.774,4.417,1.548,6.625,2.323c2.337,0.906,5.022,0.993,6.918,2.938
				c2.263,0.534,4.829,0.401,6.237,2.824c0,0,0,0,0,0v0c0.713,0.153,1.427,0.306,2.142,0.46c0,0,0,0,0,0.001c0,0,0.001,0,0.001,0
				c3.308,0.51,6.395,1.505,8.799,4.003c2.603,0.688,5.013,1.706,6.729,3.918c0,0,0,0,0,0c1.708,0.323,3.525,0.464,4.161,2.54
				c3.182,0.165,5.355,2.005,7.226,4.348c2.701,0.273,4.619,1.762,6.104,3.927l0,0c0.794-0.096,1.415,0.187,1.863,0.849l0,0l0,0
				c2.086,0.235,3.49,1.442,4.524,3.176c0,0,0,0.001,0.001,0.001c0,0,0,0,0,0c0.675,0.423,1.351,0.847,2.027,1.271
				c-0.004,0.003-0.009,0.006-0.013,0.009c0.005-0.003,0.01-0.005,0.014-0.008c3.446,1.298,6.315,3.358,8.45,6.389c0,0,0,0,0,0l0,0
				c0.693,0.729,1.387,1.459,2.081,2.189l0.477,0.357c1.169-0.045,1.714,0.679,2.047,1.663c5.408,3.394,9.851,7.749,13.177,13.218
				c1.027,0.412,1.758,1.059,1.806,2.251c1.796,0.868,2.801,2.45,3.714,4.115c2.462,1.652,4.196,3.863,5.13,6.687c0,0,0,0,0,0.001
				c0,0,0,0,0-0.001c1.794,1.923,3.628,3.819,4.227,6.517c1.409,1.046,2.447,2.341,2.758,4.122c0,0-0.001,0.001-0.001,0.001
				c0,0,0.001,0,0.001-0.001c5.001,5.853,8.39,12.552,10.477,19.936C1845.236,1483.796,1845.412,1484.367,1845.301,1485.025z
				 M1177.055,1222.02c-2.124-0.795-3.198-2.599-4.251-4.423c0-0.001-0.001-0.001-0.001-0.002c0,0,0,0,0,0
				c-2.165-0.968-3.405-2.709-4.099-4.908c1.488,0.052,3.092-0.29,4.157,1.212c2.306,1.094,4.612,2.187,6.917,3.281
				c0.058,0.628,0.072,1.256,0.041,1.886c0.827,0.669,1.738,1.257,2.469,2.018c14.299,14.885,29.541,28.7,45.936,41.269
				c11.789,9.037,22.659,19.086,32.146,30.595c6.777,8.22,11.943,17.288,14.367,27.645c2.979,12.724,2.386,25.098-5.54,36.25
				c-0.757,1.164-1.418,2.41-2.319,3.448c-0.339,0.39-1.446,0.606-1.819,0.348c-0.455-0.316-0.713-1.221-0.69-1.859
				c0.063-1.82,0.455-3.568,2.098-4.72c0.877-3.873,2.012-7.708,2.585-11.625c2.214-15.129-2.141-28.661-10.567-41.059
				c-5.527-8.132-12.2-15.317-19.542-21.803c-8.683-7.671-17.575-15.115-26.54-22.457
				C1199.49,1246.542,1187.528,1235.039,1177.055,1222.02C1177.056,1222.02,1177.056,1222.02,1177.055,1222.02
				C1177.056,1222.02,1177.055,1222.02,1177.055,1222.02z M1167.44,1182.125c7.871,15.048,25.256,21.302,39.438,11.812
				c0.891-0.596,1.883-1.115,2.903-1.414c0.55-0.162,1.483,0.008,1.852,0.398c0.797,0.844,0.885,1.984-0.049,2.839
				c-3.554,3.249-7.762,5.267-12.466,6.162c-2.126,0.405-4.319,0.46-4.392,0.468c-10.977,0.414-18.402-2.95-24.516-9.169
				c-13.693-13.927-17.099-38.519-3.974-57.046c0.578-0.816,1.635-1.309,2.515-1.883c0.277-0.181,0.895-0.305,1.027-0.159
				c0.436,0.486,1.151,1.3,0.996,1.644c-1.178,2.617-2.574,5.136-3.834,7.718C1160.614,1156.451,1160.769,1169.371,1167.44,1182.125
				z M1219.953,1183.065c1.204,0.159,1.976,1.005,1.969,2.005c-0.01,1.471-1.193,2.318-2.538,2.588
				c-0.492,0.098-1.382-0.354-1.641-0.81C1217.076,1185.671,1218.564,1183.299,1219.953,1183.065z M1258.018,1422.324
				c9.224-3.277,18.594-6.142,27.897-9.196c0.97-0.589,1.877-0.535,2.709,0.269c-0.409,0.979-0.699,2.03-1.245,2.925
				c-10.05,16.472-9.843,33.591-3.241,51.102c2.314,6.137,5.515,11.862,9.468,17.037c6.373,8.343,12.966,16.532,19.782,24.517
				c7.354,8.615,16.242,15.454,26.095,21.051c2.799,1.59,5.457,3.426,8.18,5.149c0,0.001,0,0.002,0,0.003
				c-1.421,2.594-3.893,2.492-6.365,2.579c-5.907,0.206-11.85-0.917-17.725,0.459c-16.708-0.445-33.424-0.676-50.121-1.386
				c-23.607-1.004-47.204-2.263-70.795-3.602c-17.78-1.009-35.533-2.489-53.315-3.432c-14.156-0.75-28.337-1.007-42.507-1.478
				c-1.817-0.06-3.638-0.03-5.45-0.156c-2.77-0.194-3.606-2.117-1.81-4.5c2.184-2.896,4.476-5.725,6.9-8.423
				c17.105-19.046,36.558-35.298,58.094-49.138C1193.777,1447.334,1225.458,1433.891,1258.018,1422.324z M1335.081,1515.874
				c-17.275-13.16-30.53-29.862-40.813-48.883c-4.394-8.128-5.98-17.066-5.231-26.329c1.212-14.981,8.457-25.934,22.015-32.561
				c7.198-3.518,14.874-5.746,22.629-7.531c6.608-1.521,13.374-2.358,19.808-3.452c1.581,1.936,1.541,3.73,1.436,5.561
				c-0.581,10.139-0.928,20.298-1.8,30.411c-0.423,4.905,1.286,8.226,4.928,11.271c14.689,12.285,31.181,21.021,49.7,25.919
				c3.367,0.891,6.726,1.812,10.091,2.72c-1.023,3.096-3.701,3.837-5.723,5.196c-12.369,8.316-23.918,17.671-35.082,27.509
				c-6.816,6.007-13.064,12.579-18.686,19.731c-1.557,1.981-3.433,2.513-5.666,1.173
				C1346.791,1523.07,1340.52,1520.017,1335.081,1515.874z M1370.804,1442.342c22.823-3.179,40.93-12.089,57.836-23.683
				c28.786-19.742,52.343-44.662,72.027-73.366c2-2.917,4.084-5.777,5.905-8.346c2.364,0.086,2.017,1.43,1.984,2.362
				c-1.147,32.635-2.398,65.268-3.418,97.907c-0.118,3.77-1.775,5.936-4.479,8.062c-11.948,9.393-25.546,15.25-40.342,17.946
				c-30.693,5.591-59.034-0.936-85.146-17.741C1374.276,1444.908,1373.44,1444.244,1370.804,1442.342z M1360.975,1537.704
				c0.002-0.001,0.002-0.002,0.004-0.003c16.789-23.48,39.328-40.484,63.227-55.902c3.885-2.506,8.083-4.568,11.24-7.3
				c25.803,18.661,47.913,39.99,66.275,65.099c1.056,1.444,1.994,2.996,2.776,4.601c0.172,0.354-0.476,1.586-0.875,1.653
				c-1.412,0.24-2.893,0.295-4.324,0.164c-23.547-2.159-47.185-1.369-70.762-2.273c-22.835-0.875-45.724-1.285-68.466-3.963
				C1360.376,1539.089,1360.677,1538.396,1360.975,1537.704z M1451.586,1475.713c4.077-2.748,7.42-2.706,10.595-3.32
				c16.268-3.149,30.909-9.787,44.325-19.596c5.614-4.104,7.879-9.106,8.084-15.579c0.172-5.438,0.269-10.879,0.436-16.318
				c0.155-5.076,0.304-10.153,0.564-15.223c0.137-2.681,1.905-3.719,4.417-2.434c9.039,4.626,18.337,9.075,25.573,16.309
				c14.87,14.867,20.226,33.12,17.12,53.764c-1.644,10.931-6.175,20.747-12.906,29.592c-10.324,13.563-20.76,27.016-33.659,39.931
				C1496.784,1517.621,1477.727,1493.523,1451.586,1475.713z M1530.52,1541.47c9.325-10.218,17.628-21.254,26.181-32.104
				c19.345-24.54,22.617-59.681,2.857-88.378c-0.79-1.147-1.406-2.414-2.097-3.616c2.096-1.586,3.728-0.094,5.289,0.371
				c13.23,3.939,26.159,8.65,38.482,14.973c46.288,23.751,88.071,53.604,124.145,91.248c6.807,7.103,13.109,14.61,18.732,22.677
				c0.978,1.403,2.627,2.651,1.953,4.836c-1.475,1.462-3.329,0.747-4.983,0.663c-49.034-2.483-98.105-3.287-147.194-3.375
				c-20.727-0.037-41.447-0.358-62.133-1.822c-1.351-0.095-2.869,0.25-3.944-1.224
				C1527.481,1543.606,1529.393,1542.705,1530.52,1541.47z M1574.898,1321.855c0.606,10.155,1.505,20.222,5.232,29.886
				c3.492,9.055,8.413,16.594,16.874,21.973c7.946,5.051,15.321,11.017,22.828,16.738c11.911,9.076,24.831,16.319,38.674,21.996
				c15.144,6.21,29.598,13.76,43.259,22.794c12.55,8.3,23.198,18.611,32.119,30.704c1.93,2.617,3.901,5.257,4.729,8.508c0,0,0,0,0,0
				h0c1.466-0.181,1.649,0.899,1.891,1.922c0.001,0.001,0.002,0.003,0.003,0.004c0.722,0.801,1.444,1.603,2.167,2.405v0
				c0,0,0,0,0.001,0c1.117,1.695,2.301,3.352,3.305,5.111c0.259,0.453,0.148,1.371-0.167,1.804
				c-0.194,0.267-1.253,0.246-1.651-0.034c-1.694-1.193-3.143-2.648-3.876-4.666v0c-0.261-0.554-0.279-1.116-0.054-1.685
				c-2.114-1.001-3.85-2.349-4.402-4.786c-1.583-1.485-3.32-2.838-4.727-4.474c-19.657-22.854-44.741-37.979-72.029-49.567
				c-17.521-7.441-33.805-16.63-48.724-28.388c-6.557-5.167-13.235-10.196-20.059-15.002c-5.203-3.664-8.985-8.324-11.84-13.936
				c-7.315-14.38-9.094-29.693-7.844-45.525c0.08-1.019,0.654-2.08,1.253-2.944c0.345-0.498,1.256-0.949,1.812-0.852
				c0.493,0.087,1.176,0.943,1.206,1.491C1574.998,1317.501,1574.768,1319.688,1574.898,1321.855z M1655.129,1295.542
				c-0.048-1.806,0.426-3.374,2.02-4.431c0.001,0.001,0.001,0.001,0.002,0.002c0,0,0,0,0-0.001c0.623-0.696,1.248-1.392,1.872-2.088
				c0.078-0.188,0.164-0.291,0.258-0.291c0.252-1.021,0.534-2.011,1.917-1.879c1.799-3.117,3.293-6.465,5.446-9.315
				c15.788-20.904,27.211-44.313,39.027-67.502c0.657-1.289,1.342-2.564,2.014-3.845c0.522-3.388,1.351-6.644,3.928-9.15
				c-0.067-0.665,0.09-1.273,0.471-1.822c-0.298-0.678-0.408-1.386-0.33-2.122c1.584-0.604,3.089-2.548,4.846-0.294
				c-0.183,1.907-0.557,3.732-2.243,4.964c0.09,0.641-0.055,1.223-0.436,1.747c-0.19,3.553-1.193,6.798-3.596,9.513v0c0,0,0,0,0,0
				c-10.97,26.497-23.768,51.944-42.543,73.947c-1.17,1.371-2.521,2.588-3.787,3.877c0,0,0,0-0.001,0
				c-0.591,2.381-2.29,3.666-4.45,4.494c-0.167,1.308-1.022,1.999-2.175,2.422c-0.306,1.081-1.02,1.703-2.122,1.892
				c-0.187,0.299-0.434,0.878-0.551,0.853C1653.932,1296.349,1654.089,1295.968,1655.129,1295.542L1655.129,1295.542z
				 M1689.947,1153.828c0.463,0.976,0.991,1.926,1.38,2.931c3.452,8.922,9.185,15.319,18.909,17.529
				c0.605,0.137,0.957,1.706,1.218,2.665c0.035,0.128-1.147,0.786-1.808,0.87c-4.246,0.537-7.758-1.41-10.94-3.782
				c-5.286-3.939-9.502-8.764-11.005-15.456c-5.683-11.211-4.057-22.37,0.699-33.271c2.346-5.378,6.524-9.458,11.761-12.294
				c1.627-0.881,3.389-1.289,5.2-0.862c0.527,0.125,0.981,0.815,1.326,1.34c0.149,0.228,0.069,0.839-0.135,1.024
				c-0.789,0.714-1.587,1.496-2.528,1.952c-12.153,5.882-14.94,16.635-14.92,28.776
				C1689.109,1148.109,1689.652,1150.968,1689.947,1153.828z M1717.435,980.354c-0.113-1.445-0.29-2.891-0.297-4.337
				c-0.017-3.303,0.858-4.381,4.12-5.395c12.566-3.908,23.597-1.082,33.167,7.72c6.839,6.29,11.05,14.268,14.037,22.929
				c4.819,13.974,5.766,28.441,4.111,42.947c-2.814,24.672-11.358,47.054-28.4,65.663c-11.679-3.422-22.19-9.999-34.158-12.642
				c1.586-12.569,3.187-25.136,4.754-37.707C1718.05,1033.221,1719.505,1006.847,1717.435,980.354z M1730.608,1168.276
				c-0.48,1.441-1.467,2.393-2.961,2.56c-1.684,0.188-3.034-1.895-2.415-3.678c0.507-1.463,1.531-2.278,3.163-1.942
				C1729.682,1165.481,1730.81,1167.092,1730.608,1168.276z M1799.477,1242.898
				C1799.477,1242.898,1799.477,1242.898,1799.477,1242.898c2.686,5.067,1.706,10.485,1.511,15.827c0,0,0,0,0,0
				c0.206,6.389,0.411,12.778,0.618,19.166c0,0,0,0,0,0c1.697,2.068,1.726,4.573,1.796,7.045c0.181,6.364,0.318,12.729,0.472,19.093
				c0,0.001,0,0.003,0,0.004c2.591,3.489,1.851,7.467,1.663,11.364c0,0,0,0,0,0c0.075,2.852,0.151,5.703,0.226,8.554
				c3.222,3.033,1.753,7.13,2.435,10.74c2.753,7.038,4.306,14.297,4.054,21.889c0.022,0.023,0.041,0.047,0.063,0.069l0,0
				c0.004,0.037,0.006,0.074,0.009,0.11c0.495,0.401,1.083,0.74,1.424,1.245c0.504,0.749,0.185,1.359-0.69,1.463
				c-0.148,0.018-0.463-0.501-0.525-0.807c-0.126-0.622-0.151-1.265-0.209-1.901c-0.023-0.019-0.049-0.037-0.072-0.056
				c0.001-0.042-0.001-0.082,0.001-0.124c-2.818-2.941-3.244-6.885-4.339-10.536c-0.712-2.377-1.256-4.805-1.876-7.21
				c-0.001,0-0.001,0.001-0.002,0.001c0.229-5.132-2.839-9.787-2.155-14.982c0,0,0,0-0.001,0c-0.178-2.086-0.358-4.173-0.537-6.259
				l0,0c-2.115-1.98-2.027-4.472-1.633-7.035c-0.733-10.145-1.466-20.289-2.198-30.434c0,0,0-0.001,0.001-0.001
				c0,0-0.001,0.001-0.001,0.001c-0.207-5.615-0.413-11.231-0.62-16.846c-2.839-5.808-1.739-11.958-1.569-18.028
				c-0.125-5.045-0.251-10.089-0.376-15.134c0,0,0,0,0,0c-2.829-4.926-2.327-10.183-1.513-15.51
				c2.043,5.025,3.657,10.11,3.431,15.604C1799.069,1234.44,1799.273,1238.669,1799.477,1242.898z M1645.228,676.046
				c1.014-0.99,1.926-2.099,3.515-2.113c0.596-0.398,1.251-0.601,1.966-0.612c0.001-0.001,0.002-0.001,0.003-0.002
				c1.547-2.512,4.244-2.58,6.702-3.155c3.662-0.849,7.324-1.698,10.986-2.547c0,0,0,0,0,0c1.29-0.201,2.58-0.403,3.869-0.604
				c2.13-1.624,4.529-2.154,7.156-1.76v0c0.709-0.013,1.416-0.025,2.124-0.037c0,0.001,0,0.002,0,0.003
				c0.001-0.001,0.001-0.002,0.002-0.003c1.193-0.13,2.386-0.26,3.579-0.39c0.001,0,0.003,0,0.004,0c-0.001,0-0.001,0-0.002,0
				c9.192-2.77,18.389-2.53,27.589-0.028c0,0-0.001,0-0.001,0c0,0,0.001,0,0.001,0c2.614,0.189,5.228,0.379,7.842,0.568
				c0,0,0.001,0,0.001,0c0,0,0,0,0,0c2.718-0.424,5.308-0.224,7.568,1.567c2.466,0.335,5.072,0.27,7.377,1.07
				c14.226,4.935,27.668,11.402,39.398,21.041c3.198,1.121,5.38,3.63,7.705,5.859c10.595,10.157,18.741,22.179,25.445,35.108
				c8.093,15.607,7.935,32.894,7.309,49.987c-0.398,10.876-0.935,21.749-1.582,32.613c-1.635,27.47,3.772,53.459,15.94,78.095
				c1.599,3.238,2.969,6.589,4.445,9.888c0,0,0,0,0,0c2.546,2.257,3.592,5.316,4.513,8.442v0c0.001,0.001,0.001,0.003,0.002,0.004
				c0.484,0.803,0.893,1.642,1.227,2.517c0.355,0.722,0.71,1.445,1.064,2.167c0,0,0,0,0,0c0.591,0.828,1.498,1.593,1.68,2.502
				c0.021,0.108,0.031,0.219,0.031,0.332c0.001,1.375-1.641,2.179-2.8,1.438c-0.163-0.104-0.32-0.217-0.467-0.341
				c-0.47-0.398-0.585-1.215-0.859-1.844c-2.433-3.418-5.644-6.347-6.688-10.639c-17.94-24.394-24.731-52.215-24.737-81.962
				c-0.003-13.804,0.825-27.61,1.285-41.414c0.048-1.453,0.165-2.903,0.241-4.355c1.761-33.438-5.178-54.363-35.981-83.572
				c-0.774-0.734-1.461-1.56-2.188-2.343c-3.425-1.978-6.927-3.831-10.26-5.953c-14.286-9.094-29.776-14.769-46.623-16.675
				c-2.345,0.445-4.595,0.311-6.722-0.602c-6.463-0.46-12.266-0.873-18.73-1.333l-1.349,0.417c-4.032,2.163-8.41,2.151-12.81,2.001
				c-1.186,0.132-2.361,0.263-3.54,0.394c-0.002-0.002-0.003-0.004-0.005-0.005c0,0.002,0.001,0.003,0.002,0.006
				c-3.059,2.206-6.67,1.844-10.132,2.176c-0.002,0.001-0.004,0.002-0.006,0.003c-2.575,2.873-6.467,2.206-9.609,3.563v0
				c-0.593,0.472-1.266,0.679-2.021,0.621c-0.399,1.101-1.222,1.672-2.35,1.794c-0.314,0.034-0.682-0.044-0.966-0.188
				C1644.489,677.297,1644.502,676.755,1645.228,676.046z M1644.219,744.894c0.156-2.926,0.684-5.748,2.135-9.086
				c0.538-1.238,2.363-0.937,2.5,0.406c0.747,7.288-0.684,13.48-0.423,19.63c0.307,7.225,0.333,14.461,0.483,21.692
				c0,0.002,0.001,0.004,0.001,0.006c1.336,3.104,2.16,6.3,1.689,9.721c0.861,3.494,1.723,6.988,2.584,10.482
				c1.285,2.948,2.779,5.823,3.819,8.854c4.964,14.464,12.42,27.553,21.649,39.67c10.718,14.073,22.293,27.381,35.439,39.267
				c1.653,1.01,3.306,2.021,5.121,3.13c1.709,1.044,0.742,3.68-1.238,3.379c-2.673-0.407-4.658-2.007-6.527-3.979
				c-4.182-1.639-7.193-4.836-10.226-7.92c-13.006-13.227-24.897-27.383-34.811-43.096c-6.788-10.759-12.226-22.167-15.329-34.583
				c-1.462-2.589-2.784-5.222-2.646-8.319c-2.319-3.127-2.336-6.75-2.24-10.396c-0.001-0.006-0.002-0.012-0.004-0.018
				c-1.692-3.755-2.167-7.686-1.664-11.754C1643.202,762.964,1643.736,753.926,1644.219,744.894z M1573.897,791.592
				c0.94,2.181,1.724,3.804,2.35,5.485c3.796,10.197,7.398,20.469,11.362,30.6c6.954,17.77,16.988,33.68,29.745,47.858
				c10.216,11.354,20.94,22.216,32.091,32.65c14.441,13.512,30.786,24.303,48.621,32.696c5.023,2.364,6.74,5.441,7.407,10.659
				c5.055,39.554,4.22,79-1.42,118.411c-1.183,8.268-2.187,16.561-3.272,24.842c-1.809,2.33,0.256,5.414-1.497,7.76
				c-3.622,4.586-9.177,6.847-13.121,11.144c-12.872,14.027-14.919,30.525-11.838,48.42c0.604,3.509,3.796,7.638-1.421,10.459
				c-11.718,19.847-26.615,37.114-42.48,53.743c-25.851,27.093-55.581,48.806-88.366,66.666
				c-21.344,11.626-44.313,18.053-68.008,22.092c-12.152,2.071-24.49,3.398-36.8,4.116c-21.111,1.233-41.017-4.274-60.147-12.72
				c-21.694-9.577-41.982-21.523-60.198-36.824c-12.52-10.518-25.265-20.779-37.541-31.574
				c-17.037-14.983-30.887-32.733-43.28-51.657c-3.487-3.935-1.532-8.216-0.655-12.34c6.273-29.477-4.268-50.364-31.836-62.87
				c-2.311-1.048-4.696-1.953-5.832-4.502c-10.545-35.187-17.319-71.217-23.976-107.272c-0.776-4.202-1.413-8.445-0.888-12.542
				c1.154-0.421,1.831-0.906,2.479-0.87c22.864,1.247,44.716-4.035,66.413-10.277c7.943-2.285,15.84-4.727,25.284-7.553
				c-4.009,4.43-6.95,7.55-9.728,10.811c-1.161,1.363-2.156,2.939-2.898,4.568c-0.861,1.89-0.006,3.506,1.528,4.758
				c1.59,1.297,3.372,1.581,4.928,0.191c1.881-1.679,3.569-3.584,5.266-5.459c10.694-11.821,24.166-18.527,39.761-20.646
				c12.684-1.724,24.631,0.519,34.642,9.342c1.08,0.951,2.151,2.002,3.413,2.634c1.724,0.863,3.539,0.705,4.955-0.819
				c1.366-1.471,1.714-3.316,0.801-5.015c-0.833-1.554-2.002-3.032-3.326-4.201c-7.3-6.446-15.947-9.944-25.532-11.202
				c-2.767-0.364-5.567-0.478-8.646-0.73c1.672-3.892,5.352-4.102,8.134-5.293c42.087-18.032,82.754-38.865,122.25-61.98
				c36.396-21.3,71.709-44.243,104.522-70.836c7.336-5.945,14.34-12.3,21.512-18.447
				C1570.257,794.495,1571.921,793.2,1573.897,791.592z M1330.121,883.448C1330.121,883.448,1330.121,883.447,1330.121,883.448
				c0.698-0.135,1.397-0.269,2.095-0.405c0.014-0.001,0.028-0.009,0.042-0.009c1.259-2.524,3.471-2.438,5.773-2.106
				c0.004-0.003,0.008-0.005,0.012-0.007c1.153-1.959,3.132-2.164,5.104-2.383c0,0,0.001,0,0.001,0
				c1.514-2.561,4.428-2.467,6.723-3.548c0,0,0.001,0.001,0.002,0.001c0,0-0.001-0.001-0.002-0.001
				c2.167-0.774,4.335-1.547,6.503-2.322c0,0,0,0,0,0c0-0.001,0-0.001,0-0.002c0.65-0.372,1.347-0.505,2.09-0.399
				c0,0,0.001,0,0.001,0c1.181-2.163,3.082-2.643,5.341-2.282c0.001-0.001,0.003-0.001,0.004-0.002
				c1.887-2.733,5.101-2.795,7.813-3.869c0,0,0,0,0,0c0,0,0,0,0,0c1.105-0.099,2.211-0.199,3.316-0.298v0
				c0.343-2.686,2.317-2.216,4.099-2.12c0.746-2.949,3.733-2.457,5.617-3.658c1.459-0.739,2.919-1.479,4.378-2.218
				c1.458-0.745,2.916-1.489,4.373-2.234c1.451-0.76,2.902-1.519,4.353-2.279c0-0.001,0-0.002,0-0.004
				c0.734-0.153,1.467-0.31,2.201-0.465c-0.009,0.134-0.013,0.266-0.021,0.4c0.007-0.133,0.014-0.265,0.021-0.398
				c0.611-2.171,2.583-2.348,4.283-2.924c0.358-1.823,1.621-2.01,3.139-1.737c0,0,0,0,0,0c1.285-2.221,3.486-3.03,5.755-3.734
				c0,0,0,0,0,0c0.625-0.114,1.251-0.227,1.876-0.34c0.064-0.022,0.129-0.035,0.194-0.035c0.001,0,0.002,0,0.004-0.001
				c0.618-2.112,2.688-2.341,4.228-3.258c0.967-1.814,2.66-2.521,4.525-2.966c0,0,0.001,0,0.001,0.001c0,0,0-0.001,0-0.001
				c2.027-1.124,3.607-3.229,6.307-2.884l0.002,0.002c-0.017-1.667,1.047-1.973,2.403-1.91c0.605-1.995,2.142-2.496,3.994-2.492
				l0.49,0.406c-0.199-0.167-0.483-0.403-0.486-0.405c0.131-1.505,1.245-1.952,2.462-2.288c0.707-2.202,2.637-2.818,4.524-3.489
				c0,0,0,0,0.001,0.001c0,0,0-0.001,0-0.001c0.671-0.357,1.344-0.714,2.016-1.071c0.778-2.097,2.521-2.932,4.51-3.443c0,0,0,0,0,0
				s0,0,0,0c0.673-0.472,1.347-0.945,2.021-1.419c0.001-0.001,0.002-0.003,0.004-0.004c1.67-2.423,3.923-4.065,6.705-4.995
				c0,0,0,0,0.001,0.001c0,0,0-0.001,0-0.001c0.622-0.202,1.245-0.404,1.867-0.606c0.067-0.04,0.135-0.066,0.205-0.066
				c0.034-1.473,0.909-1.956,2.24-1.901c0.778-1.787,2.127-2.617,4.08-2.434l0.347,0.271c-0.115-0.091-0.34-0.268-0.343-0.269
				c0-1.584,1.186-2.102,2.36-2.632c1.546-2.675,3.954-4.271,6.743-5.39c0,0,0,0,0.001,0.001c0,0,0-0.001,0-0.001
				c0.568-0.34,1.137-0.68,1.706-1.022c0.096-0.107,0.189-0.17,0.281-0.17c1.561-2.663,3.88-4.396,6.724-5.484c0,0,0,0,0,0
				c0,0,0,0,0-0.001c0.691-0.134,1.383-0.269,2.075-0.404c0,0,0.021,0.017,0.021,0.017c0.284,1.663-0.874,2.247-2.088,2.788
				c-1.534,2.823-3.938,4.59-6.896,5.684c-0.49,0.436-1.033,0.787-1.621,1.071c-0.043,0.045-0.087,0.073-0.132,0.073
				c-1.67,2.64-4.008,4.424-6.957,5.422c-0.007,0.004-0.839,0.503-0.839,0.503s-0.961-0.131-0.966-0.132l0.001,0.001
				c-0.576,2.573-2.543,3.531-4.81,4.138c-0.577,0.484-1.151,0.965-1.725,1.447c-0.001,0-0.002-0.001-0.003-0.001
				c0,0.001,0.001,0.002,0.001,0.003c-0.602,0.427-1.205,0.856-1.807,1.284c-0.097,0.143-0.198,0.215-0.303,0.215
				c-0.001,0.001-0.002,0.001-0.002,0.002c-1.614,2.74-4.092,4.38-6.99,5.484c-0.505,0.498-1.106,0.81-1.803,0.937
				c-0.86,2.177-2.636,3.146-4.782,3.625c-0.44,0.404-0.944,0.697-1.495,0.904c-0.045,0.038-0.092,0.058-0.139,0.063
				c-0.008,0.003-0.015,0.008-0.023,0.011c-0.987,2.022-2.583,3.201-4.825,3.489c-0.012,0.007-0.774,0.469-0.774,0.469
				s-0.872-0.108-0.889-0.109l0.001,0.001c-0.789,2.44-2.774,3.307-5.027,3.821c-0.011,0.008-0.751,0.637-0.751,0.637
				s-0.959-0.216-0.959-0.215c0,0-0.016-0.019-0.023-0.027l0.023,0.028c-1.14,2.754-3.676,3.674-6.117,4.718
				c-0.061,0.049-0.124,0.081-0.189,0.081c0,0,0,0,0,0s0,0,0,0c-0.896,2.214-2.865,2.884-4.925,3.425
				c-1.463,0.719-2.927,1.437-4.39,2.156c-0.39,0.609-0.944,0.925-1.664,0.95c0.015,1.231-0.774,1.606-1.819,1.708
				c-2.159,1.996-4.579,3.506-7.525,4.036c-1.371,0.629-2.739,1.257-4.107,1.885c0,0.001,0,0.002,0,0.004
				c-0.72,0.145-1.439,0.293-2.159,0.44c-0.665,2.266-2.331,2.547-4.323,2.183c-0.599,2.39-2.335,2.547-4.326,2.205
				c-0.625,2.418-2.367,2.547-4.373,2.135c-0.896,2.606-2.886,2.69-5.115,2.226c-0.425,3.032-2.549,2.391-4.511,2.096
				c0.209,2.7-1.88,2.134-3.389,2.388c0,0,0,0-0.001,0c-0.784,1.732-2.274,2.256-4.017,2.347c-2.738,2.237-5.994,3.24-9.377,3.942
				c0,0,0,0.001,0,0.001c-0.003,0-0.959,0.296-0.959,0.296l-0.999-0.063c-0.742,1.796-2.287,2.257-4.015,2.414
				c-2.712,2.35-6.148,2.966-9.434,3.943c-0.464,0.267-0.958,0.357-1.484,0.27c-2.536,2.714-6.197,2.705-9.373,3.869
				c0,0,0,0,0,0.001c-0.003,0-0.957,0.332-0.957,0.332l-1.001-0.133c-2.659,1.573-5.364,2.987-8.622,2.475c0,0,0,0-0.001-0.001
				c0,0,0,0,0,0c-1.328,2.947-4.119,2.162-6.458,2.532c-1.702,2.442-4.304,1.779-6.668,1.934c-1.601,2.572-4.195,1.967-6.572,2.056
				c-2.397,3.137-5.569,1.827-8.797,0.982c2.944-1.054,5.888-2.108,8.833-3.162c0,0,0-0.001,0-0.001
				c2.219-0.647,4.438-1.294,6.657-1.941c0-0.001,0-0.001,0-0.002c2.166-0.667,4.33-1.335,6.494-2.003c0,0,0-0.001,0-0.001
				c2.114-0.654,4.228-1.309,6.342-1.963c0.085-0.047,0.17-0.078,0.256-0.079c0.003-0.001,0.005-0.002,0.008-0.003
				c0,0,0,0.001,0,0.001C1324.581,885.765,1326.886,883.075,1330.121,883.448z M1500.228,782.189
				c2.913-4.164,6.726-7.318,11.071-9.878c0,0,0-0.001,0-0.001c0.687-0.107,1.373-0.216,2.059-0.324
				c0-0.016,0.003-0.029,0.002-0.045l0,0c0.012,0,0.022-0.002,0.034-0.002c-0.113-1.539,0.646-2.211,2.145-2.148
				c0-0.011,0.002-0.02,0.002-0.031l0.031,0.03c0,0-0.031-0.03-0.03-0.029c0.011,0,0.02-0.002,0.03-0.002
				c-0.067-1.499,0.675-2.183,2.139-2.14c0.017,1.438-0.713,2.135-2.139,2.14c0,0.011-0.001,0.02,0,0.031
				c-0.012,0-0.021,0.001-0.033,0c-0.006,1.425-0.723,2.139-2.145,2.148c0.001,0.015-0.001,0.027,0,0.042l-0.023-0.026
				c0.01,0.012,0.022,0.026,0.022,0.025c-0.012,0.002-0.024,0.004-0.036,0.006c0.021,1.374-0.812,2.079-1.95,2.543
				c-0.041,0.034-0.081,0.052-0.122,0.052c-2.853,4.381-6.615,7.765-11.222,10.222c0,0,0,0,0,0
				c-0.008,0.004-0.947,0.498-0.947,0.498l-0.981-0.278c0.002,0.013,0,0.024,0.002,0.038l-0.049-0.051l0.048,0.013
				C1497.933,783.421,1499.076,782.802,1500.228,782.189z M1498.09,785.009c0,0,0.049,0.051,0.048,0.051
				c-0.015,0.003-0.03,0.005-0.044,0.008c0.237,1.589-0.853,2.198-2.058,2.722c-1.52,2.847-3.858,4.726-6.87,5.807
				c-0.012,0.006-0.934,0.495-0.934,0.495l-1.003-0.332l-0.022-0.017c-0.196-1.6,0.901-2.158,2.114-2.624
				c1.488-2.789,3.853-4.54,6.727-5.691c0,0,0,0,0-0.001c0.682-0.12,1.364-0.24,2.047-0.36
				C1498.091,785.046,1498.093,785.03,1498.09,785.009z M1522.041,763.189c0.039-0.001,0.071-0.008,0.109-0.01
				c0.081-1.291,0.781-1.961,2.056-2.054c0.002-0.035,0.01-0.065,0.011-0.101l0.103,0.089c-0.041,0.002-0.075,0.01-0.114,0.012
				c-0.094,1.279-0.756,1.987-2.056,2.054c-0.002,0.037-0.01,0.069-0.011,0.107l0,0c-0.037,0-0.069,0.006-0.105,0.007
				c-0.022,1.355-0.72,2.042-2.077,2.079c0,0.029-0.005,0.052-0.005,0.081c0-0.001-0.072-0.071-0.075-0.074l0.076,0.075
				c-0.029-0.001-0.053,0.003-0.081,0.002c0.015,1.411-0.702,2.104-2.113,2.114c0,0.016-0.002,0.029-0.002,0.046
				c-0.001-0.001-0.044-0.044-0.043-0.043c0.016,0,0.029-0.002,0.045-0.003c-0.034-1.453,1.087-1.075,2.113-2.114l0.004-0.079
				c0.029,0,0.053-0.005,0.081-0.006c0.012-1.379,0.735-2.041,2.077-2.079C1522.035,763.257,1522.041,763.226,1522.041,763.189
				l0.08,0.079C1522.097,763.244,1522.041,763.188,1522.041,763.189z M1524.43,759.011c0.801-1.82,2.313-2.402,4.163-2.395
				c0.326-0.292,0.652-0.584,0.979-0.877c-0.288,0.33-0.575,0.66-0.862,0.991l0.001,0.001c-0.284,1.126-0.959,1.864-2.112,2.129
				c-0.001,0.001-0.002,0.002-0.003,0.003c-0.322,1.2-1.008,2.002-2.292,2.147c0.007,0.034,0.008,0.067,0.016,0.101
				c0-0.001-0.103-0.088-0.102-0.088c0.03-0.003,0.056-0.01,0.086-0.014C1524.169,760.335,1524.207,759.668,1524.43,759.011z
				 M1175.131,859.07c2.471-3.191,4.662-6.555,8.263-8.683c0.038-0.034,0.075-0.058,0.113-0.089c-0.038,0-0.075-0.001-0.113-0.001
				c0.454-1.139,1.074-2.089,2.465-2.16c0,0,0.001-0.001,0.001-0.001c0.131-1.312,0.685-2.222,2.152-2.264l0.022,0.032
				c0.23-0.627,0.461-1.254,0.692-1.881c0.077,0.001,0.154,0.002,0.231,0.003c-0.077-0.034-0.154-0.052-0.231-0.093
				c1.158-2.788,2.799-5.185,5.469-6.747c0,0,0.001,0,0.001,0c0.419-1.157,0.916-2.242,2.34-2.435
				c-0.165-0.736,0.058-1.325,0.671-1.765c0.401-2.015,1.368-3.618,3.285-4.534c0.016,0,0.031,0,0.047,0
				c1.293-2.413,2.261-5.072,4.926-6.44c0.016-0.02,0.032-0.032,0.048-0.051c0.286-0.696,0.573-1.391,0.86-2.087
				c-0.012-0.023-0.025-0.039-0.037-0.063c0.832-2.502,2.116-4.722,4.089-6.508c0,0,0,0,0-0.001h0
				c-0.024-1.878,1.374-2.994,2.328-4.349c0.022,0.002,0.044,0.002,0.066,0.004c1.447-2.833,2.894-5.667,4.34-8.5
				c0.765-2.565,1.573-5.107,3.758-6.898c0.924-2.079,1.848-4.158,2.772-6.237c2.75-6.888,5.283-13.88,9.635-19.997
				c0,0,0,0,0.001-0.001c0.501-2.035,0.917-4.116,2.829-5.414c-0.307-1.943,0.502-3.357,2.086-4.406
				c-0.219-1.448-0.115-2.733,1.605-3.212c0,0,0,0,0,0c0.701-1.604,0.687-3.696,2.903-4.271c0.014-0.025,0.029-0.042,0.043-0.066
				c0.178-0.664,0.357-1.328,0.536-1.992c0.024,0,0.046,0,0.07,0c-0.023-0.031-0.047-0.056-0.07-0.09
				c0.664-1.433,1.327-2.865,1.991-4.298c0,0,0,0,0,0c1.046-3.378,2.483-6.525,5.251-8.886c0.002-0.002,0.004-0.003,0.006-0.005
				c0.487-0.685,0.976-1.37,1.465-2.055c1.378-3.301,2.543-6.74,5.737-8.865c-0.152-0.749,0.05-1.388,0.622-1.915
				c0.042,0.001,0.085,0.003,0.127,0.004c-0.042-0.032-0.085-0.059-0.127-0.094c0.234-2.015,1.284-3.494,2.983-4.548
				c0.001-0.001,0.002-0.001,0.003-0.002c0.446-0.667,0.893-1.334,1.341-2.001c0,0,0,0,0,0c0,0,0,0,0,0
				c0.31-2.053,1.357-3.589,3.207-4.559c0.026-0.018,0.053-0.027,0.079-0.044c0.359-0.611,0.718-1.221,1.078-1.832
				c0.186,0.274,0.388,0.572,0.599,0.884c-0.173-0.339-0.369-0.666-0.599-0.975c1.176-3.596,3.624-6.293,6.259-8.858
				c1.57-2.48,2.966-5.11,5.659-6.632c0.001,0,0.001-0.001,0.002-0.001c0.514-1.054,1.029-2.11,2.363-2.335
				c0.354-1.648,1.329-2.77,2.813-3.457c0.07-0.061,0.141-0.103,0.214-0.103c0.3-1.264,1.07-2.098,2.299-2.511
				c0,0,0.189,0.254,0.195,0.262c0.008,0,0.015-0.001,0.022-0.002c-0.119-0.143-0.217-0.26-0.217-0.26
				c0.104-1.237,0.82-1.945,1.968-2.281c0,0,0,0,0,0c0,0,0,0,0,0c5.572-7.604,11.842-14.512,19.744-19.792
				c0.756-0.688,1.511-1.375,2.266-2.062c2.171-3.023,5.012-5.147,8.533-6.358c0.024,0.021,0.05,0.037,0.074,0.057
				c0.631-0.28,1.224-0.544,1.8-0.8c0.037-0.044,0.061-0.092,0.101-0.135c2.982-3.328,6.854-5.188,10.969-6.648
				c0.015,0.016,0.026,0.032,0.041,0.048c1.773-1.993,4.043-3.016,6.646-3.387c0.116,0.093,0.243,0.174,0.374,0.251
				c-0.125-0.114-0.249-0.227-0.373-0.341c0.471-0.473,1.036-0.655,1.695-0.547c0.945-1.755,2.619-2.057,4.376-2.192
				c1.537-1.7,3.543-2.252,5.738-2.337c0.042,0.004,0.084,0.009,0.126,0.013c3.143-2.011,6.615-3.085,10.291-3.578
				c0.969-0.173,1.933-0.346,2.894-0.518c4.44-2.341,9.23-3.367,14.184-3.784c1.503-0.23,3.007-0.461,4.51-0.692
				c1.077-1.203,2.399-1.513,3.926-1.075c0.159,0.065,0.324,0.114,0.491,0.157c-0.163-0.052-0.326-0.105-0.49-0.157
				c3.546-0.351,7.092-0.701,10.638-1.052c1.318-0.45,2.613-1.198,3.958-1.301c10.61-0.819,21.23-0.866,31.832,0.125
				c1.352,0.126,2.647,0.862,3.969,1.316c-0.277,0.241-0.554,0.481-0.832,0.722c0.358,0.01,0.716,0.02,1.074,0.03l-0.242-0.752
				c2.86,0.187,5.72,0.375,8.581,0.562c0,0,0,0,0,0c3.277-0.504,6.446-0.354,9.329,1.535c2.963-0.056,5.905,0.016,8.636,1.395
				c0.598-0.331,1.045-0.183,1.344,0.447c3.663,0.267,7.336,0.496,10.47,2.764c0.926,0.094,1.852,0.188,2.778,0.282
				c0,0.001,0,0.002,0.001,0.004c0.001-0.001,0.002-0.002,0.003-0.003c1.967-0.286,3.552,0.607,5.082,1.663
				c4.665,0.706,9.284,1.555,13.308,4.264c1.18,0.273,2.359,0.545,3.537,0.818c0,0,0,0,0,0c5.457,1.326,10.922,2.63,15.555,6.068
				c0,0-0.001,0.001-0.001,0.001c0,0,0.001-0.001,0.001-0.001c3.291,0.764,6.403,1.887,8.824,4.397
				c0.709-0.226,1.348-0.1,1.918,0.376c3.165,0.844,6.49,1.326,8.888,3.912c0,0.001-0.001,0.001-0.001,0.002
				c0.001-0.001,0.001-0.001,0.002-0.002c2.146,1.027,4.292,2.055,6.439,3.082c1.682,0.623,3.599,0.842,4.58,2.668
				c0.001,0,0.001,0.001,0.001,0.002c0.296,0.116,0.668,0.158,0.876,0.365c0.578,0.577,1.654,1.451,1.514,1.797
				c-0.386,0.955-1.41,1.061-2.369,0.508c-2.777-0.619-5.489-1.365-7.308-3.817c0,0,0,0,0,0c-1.898-0.846-3.792-1.691-5.683-2.535
				c-3.35-0.645-6.803-1.041-9.261-3.839c0,0,0,0,0,0c0,0,0,0,0,0c-1.707-0.239-3.309-0.674-4.261-2.307
				c-2.5,0.231-4.267-1.404-6.259-2.463c-5.455-1.341-10.71-3.199-15.603-6.001c0-0.001,0-0.002,0-0.003
				c-0.001,0.001-0.002,0.002-0.002,0.003c-1.34-0.303-2.682-0.607-4.024-0.911c0,0,0,0,0,0c0,0,0,0,0,0
				c-2.183-0.617-4.365-1.234-6.547-1.852c-0.001-0.001-0.002-0.001-0.003-0.002c0,0,0.001,0.001,0.001,0.001
				c-1.997,0.267-3.518-0.803-5.062-1.808l-0.746,0.1l-0.657-0.366c0-0.001,0-0.002,0-0.002c0,0.001-0.001,0.001-0.002,0.002
				c-1.903,0.216-3.556-0.31-4.927-1.671c-3.364-0.005-6.544-0.706-9.441-2.485c0,0,0.001,0,0.001-0.001
				c-0.004-0.002-0.097-0.064-0.097-0.064c-0.003,0-0.006-0.002-0.009-0.002c0,0,0.001,0.001,0.001,0.002
				c-3.138,0.246-6.118-0.182-8.719-2.157c-0.001,0-0.003-0.001-0.005-0.001c-1.533-0.094-3.066-0.187-4.6-0.281
				c-0.003,0-0.005-0.001-0.008-0.001c0,0,0,0,0,0c-4.35,0.391-8.594,0.019-12.61-1.882l0,0c-0.94-0.086-1.871-0.172-2.802-0.258
				c-0.003,0-0.005-0.001-0.008-0.002c0,0,0,0.001,0.001,0.001c-3.025-0.067-6.057-0.135-9.087-0.203
				c-7.422,0.002-14.843,0.004-22.265,0.007c-2.317,0.029-4.633,0.057-6.949,0.085c-2.377,0.176-4.754,0.352-7.132,0.528
				c-3.229,2.176-6.852,2.208-10.531,1.929c-1.074,0.129-2.14,0.256-3.203,0.383c-2.271,2.139-5.041,2.16-7.887,1.861h0
				c-2.123,2.323-5.014,2.29-7.81,2.549c-1.51,1.65-3.457,2.012-5.569,1.89c-0.096,0.043-0.191,0.074-0.288,0.114
				c-2.795,2.117-6.212,2.758-9.44,3.851c-1.499,0.596-2.997,1.192-4.496,1.788c-0.51,0.522-1.125,0.732-1.846,0.631
				c-0.011-0.01-0.022-0.02-0.033-0.03c0.009,0.042,0.026,0.075,0.033,0.12c-2.195,2.105-5.733,3.899-8.855,4.362
				c-0.001-0.029-0.002-0.058-0.004-0.088c-3.591,2.159-7.181,4.319-10.772,6.478c0,0-0.001,0-0.001-0.001c0,0,0,0.001,0,0.001
				c-2.514,2.789-5.369,5.109-8.923,6.464c0,0-0.001,0-0.001-0.001c-0.007,0-0.383-0.03-0.383-0.03
				c-0.031,0.036-0.062,0.063-0.093,0.096c0.031-0.002,0.062-0.004,0.093-0.007c-0.625,1.415-2.365,2.705-3.833,3.413
				c0.462-1.078,0.925-2.157,1.387-3.236c0.035-0.003,0.071-0.005,0.106-0.008c-0.035-0.029-0.07-0.051-0.106-0.082l-0.637-0.354
				c0,0-0.693,0.182-0.702,0.184c0.269,0.333,0.538,0.667,0.808,1c-0.141,0.853-0.434,1.652-0.857,2.405
				c-5.102,5.938-10.654,11.417-16.668,16.428c-0.001,0-0.001,0.001-0.002,0.001c-0.453,1.162-1.081,2.142-2.464,2.317
				c-0.28,1.41-1.105,2.305-2.505,2.657c-0.131,1.277-0.85,1.998-2.097,2.22c0,0,0,0-0.001,0c0,0,0,0,0,0
				c0.126,0.817-0.219,1.296-1.033,1.438c-0.522,0.693-1.043,1.384-1.563,2.074c-1.07,2.841-2.953,5.029-5.418,6.751
				c-0.079,0.049-0.16,0.076-0.24,0.117c0.08-0.009,0.159-0.018,0.239-0.027c-0.377,0.572-0.793,1.202-1.253,1.899
				c-0.01-0.005-0.02-0.01-0.03-0.015c-1.269,3.533-3.748,6.219-6.248,8.889c-0.827,1.787-1.645,3.581-3.605,4.45
				c-0.37,0.634-0.739,1.266-1.108,1.899c-0.356,2.029-1.313,3.645-3.18,4.638c-0.044,0.032-0.088,0.055-0.133,0.085
				c0.044,0.001,0.088,0.003,0.132,0.004c-0.427,0.618-0.895,1.293-1.408,2.034c-0.012-0.001-0.025-0.001-0.038-0.002
				c-1.399,3.25-2.821,6.485-5.816,8.667c0,0,0,0,0,0c0.251,0.744,0.125,1.417-0.376,2.021c-1.017,3.469-2.684,6.548-5.389,9.007
				c-0.88,1.519-0.99,3.606-3.112,4.205c-0.023,0.035-0.045,0.058-0.068,0.09c0.023,0,0.044,0,0.067,0
				c-0.191,0.716-0.382,1.431-0.575,2.146c0,0-0.017,0-0.044,0c-0.646,1.384-1.292,2.767-1.939,4.151c0,0,0,0,0,0
				c-0.66,2.717-1.729,5.219-3.768,7.217c-0.087,1.756-0.814,3.16-2.285,4.153c0.139,0.677-0.029,1.266-0.503,1.768
				c-3.113,7.547-5.739,15.322-10.403,22.141c-0.891,2.057-1.783,4.115-2.674,6.172c-0.713,2.626-1.509,5.207-3.812,6.963
				c-0.816,2.498-1.756,4.917-4.087,6.455c-0.022,0.027-0.043,0.045-0.064,0.071c-0.267,1.721-0.564,3.422-2.554,4.088
				c-0.263,2.898-1.633,5.123-4.078,6.692c-0.011,0.014-0.022,0.023-0.033,0.037c0.025,0.003,0.051,0.003,0.076,0.007
				c-0.286,0.654-0.581,1.321-0.887,2.015c-0.028,0-0.056-0.003-0.084-0.003c0.013,0.017,0.026,0.03,0.039,0.048
				c-0.542,2.277-2.497,4.575-4.071,6.44c-0.008,0.009-0.017,0.014-0.025,0.022c-0.378,2.069-1.437,3.635-3.406,4.529
				c-0.481,1.257-1.107,2.379-2.543,2.758c-0.123-0.46-0.386-0.821-0.788-1.082c0.262,0.362,0.525,0.723,0.787,1.085
				c0.272,0.573,0.14,1.028-0.398,1.365c-0.937,2.969-2.967,5.054-5.466,6.759c-0.078,0.039-0.156,0.055-0.233,0.088
				c0.077,0.001,0.154,0.002,0.231,0.002c-0.553,0.918-1.598,2.362-2.972,2.579c0.221,0.703,0.001,1.226-0.684,1.559
				c-0.517,0.71-1.034,1.421-1.551,2.131c-0.037,0-0.074,0-0.112-0.001c0.037,0.032,0.074,0.056,0.112,0.091
				c-2.72,4.817-6.766,8.262-11.165,11.457c0,0,0,0,0,0c-0.177,1.091-0.888,1.624-1.906,1.837l-0.501-0.497
				C1172.732,861.377,1173.411,859.915,1175.131,859.07z M1172.728,863.347c-0.003-0.003,0.498,0.494,0.498,0.494
				c-0.416,0.259-0.835,0.521-1.306,0.815C1172.19,864.222,1172.461,863.786,1172.728,863.347z M1131.509,1023.296
				c1.683-7.871,4.246-15.352,9.401-21.714c5.046-6.227,11.53-8.437,19.355-6.949c2.369,0.451,3.927,1.684,4.336,4.152
				c0.949,5.719,1.892,11.44,2.854,17.157c5.229,31.094,12.209,61.794,20.786,92.133c-10.631,2.75-19.949,7.764-27.56,15.805
				c-0.69,0.729-1.85,1.014-2.791,1.506c-14.843-17.315-22.285-37.904-26.314-59.944
				C1129.012,1051.422,1128.504,1037.351,1131.509,1023.296z M1097.521,1144.826c1.929,4.273,2.847,8.442,3.329,12.608
				c0.47,2.185,1.23,5.718,1.701,7.903c0.431,1.148,0.514,2.396,0.377,3.707c0.037,0.76,0.073,1.51,0.111,2.269
				c0.533,2.689,1.067,5.377,1.6,8.065c0.455,2.294,1.319,4.47,2.297,6.595c0.32,0.695,0.517,1.431,0.641,2.192
				c0.261,1.608,0.817,3.146,1.488,4.631c1.3,2.881,1.689,6.056,2.388,9.132l0.086,0.335c0.466,1.812,1.273,3.502,2.209,5.122
				c1.335,2.31,1.623,5.016,2.202,7.612c0,0,0,0-0.001,0.001c0,0,0.001-0.001,0.001-0.001c0.269,1.358,5.574,14.295,6.487,17.49v0
				l0,0c0.448,0.629,7.927,20.699,8.755,24.011c0.123,0.96,1.398,4.59,2.229,7.509c0.487,1.712,1.291,3.304,2.167,4.854
				c1.24,2.196,1.07,4.924,1.929,7.263c0.825,3.597,2.459,5.254,3.308,9.333c1.123,2.805,2.119,5.52,2.34,9.18
				c0,0,0.608,3.867,0.72,5.31c0,0,0.649,6.981,1.132,10.598c1.388,4.342,1.459,7.854,2.101,11.548
				c0.574,3.305,0.323,10.097,0.323,10.097c0.001,0-0.649,3.576-0.715,5.372c-0.067,1.834-0.49,3.712-2.567,4.312
				c-1.301,0.376-2.018-2.545-1.129-5.513c0.398-1.33-0.519-6.44-0.512-8.34c0.011-2.892,0.086-5.783,0.134-8.675
				c0.025-2.162,0.049-4.324,0.074-6.486c-0.673-4.31-1.346-8.619-2.019-12.929h0c-0.105-1.188-3.566-12.871-4.634-18.728
				c-0.515-2.823-1.235-5.598-2.149-8.318c-1.579-4.701-3.659-10.906-4.074-12.215l-3.596-8.779
				c-0.608-1.485-1.158-2.995-1.646-4.524c-0.043-0.134-0.086-0.269-0.129-0.403c-1.648-4.129-4.33-10.847-5.978-14.975
				c-0.979-1.984-1.315-4.237-1.852-6.406c0,0-5.602-14.254-6.463-17.476c-0.023-0.098-0.046-0.197-0.069-0.295
				c-0.425-1.803-1.206-3.486-2.131-5.09c-1.339-2.322-1.628-5.04-2.202-7.65c-0.68-2.909-1.939-5.017-2.406-8.625c0,0,0,0,0,0
				c-1.351-2.495-2.259-5.112-2.639-7.875c-0.183-1.331-0.49-2.654-1.113-3.844c-0.948-1.809-1.24-3.74-1.215-5.73
				c0.026-2.101-0.275-4.19-0.873-6.204c-0.457-1.538-0.859-3.334-0.754-4.648c-0.596-4.052-1.397-8.088-1.521-12.808
				C1095.228,1144.044,1096.989,1143.647,1097.521,1144.826z M1095.902,1437.717c18.194-10.639,37.043-19.864,57.935-24.171
				c6.738-1.389,13.384-3.228,20.058-4.914c9.527-2.407,18.451-6.367,27.233-10.681c0.333-1.205,1.111-1.811,2.372-1.771
				l0.289-0.208h0c0.177-1.156,0.805-1.803,2.015-1.802l0.35-0.329c0,0,0,0,0,0c0.056-1.173,0.688-1.79,1.837-1.908l0.233-0.282
				c-0.035-1.284,0.625-1.976,1.855-2.183c0,0,0,0,0,0l0.076-0.098c1.315-3.578,3.944-6.241,6.323-9.078
				c0.56-0.746,1.012-1.63,1.72-2.187c0.431-0.339,1.696-0.422,1.828-0.189c0.449,0.79,0.898,1.85,0.71,2.659
				c-0.203,0.871-1.124,1.574-1.731,2.351h0v0c-1.896,3.763-3.211,7.884-6.599,10.73l-0.16,0.284
				c0.174,1.279-0.279,2.098-1.644,2.251l-0.193,0.236c-0.007,1.314-0.639,2.103-1.945,2.329c-4.758,6.371-11.707,9.634-18.711,12.5
				c-8.033,3.288-16.294,6.06-24.567,8.708c-19.005,6.083-37.79,12.633-55.38,22.26c-15.444,8.453-29.346,18.707-40.062,32.873
				c-3.758,4.968-8.7,8.659-13.843,13.595c-0.053-9.886,2.86-17.584,8.571-24.386
				C1073.432,1453.634,1083.936,1444.714,1095.902,1437.717z M1002.443,1117.869c3.028-7.783,7.029-15.055,11.159-22.278
				c1.099-1.923,2.254-3.816,3.534-5.624c15.571-21.998,17.487-46.461,12.619-71.948c-2.313-12.112-5.793-23.996-8.361-36.065
				c-2.196-10.323-3.768-20.751-1.422-31.339c1.578-7.125,3.483-14.072,8.549-19.664c0,0,0.001,0,0.001,0c0,0,0,0,0,0
				c0.327-2.728,2.32-4.44,4.03-6.225c7.984-8.333,16.261-16.342,26.309-22.242c6.065-6.369,12.131-12.737,18.196-19.105
				c0,0,0.001-0.001,0.001-0.001c0.521-0.896,0.924-1.897,1.598-2.658c0.691-0.78,1.813-1.326,2.477-0.057
				c0.353,0.673,0.301,1.335-0.153,1.832c-0.884,0.967-1.792,1.91-2.457,3.039c-4.4,7.473-9.434,14.438-16.582,19.667
				c-4.122,3.481-8.285,6.914-12.355,10.455c-6.828,5.94-12.823,12.666-18.355,19.813c-5.598,13.222-6.06,26.765-2.449,40.534
				c2.577,9.827,5.185,19.646,7.888,29.439c4.293,15.558,6.265,31.291,4.355,47.435c-1.306,11.034-5.052,21.155-10.777,30.576
				c-3.017,4.964-6.354,9.733-9.455,14.647c-8.796,13.938-15.801,28.599-17.99,45.175c-0.095,0.718-0.294,1.422-0.412,2.138
				c-0.193,1.167-0.854,1.958-1.977,2.235c-1.749,0.431-1.641-1.137-1.734-1.993
				C997.642,1136.093,998.947,1126.855,1002.443,1117.869z M985.066,1406.465c0.023-5.556,1.779-10.745,3.806-15.772
				c7.319-18.15,16.045-35.598,26.766-52.008c-0.189-0.729,0.04-1.287,0.686-1.674c-0.164-1.274,0.356-2.17,1.499-2.725
				c-0.225-0.691-0.033-1.236,0.575-1.633c-0.247-1.81,0.564-3.173,1.836-4.34l0.015-0.047l0,0
				c-0.169-2.551,0.368-4.893,2.034-6.902c-0.004-0.719-0.146-1.467,0.006-2.151c4.031-18.125,1.652-35.663-4.097-53.108
				c-3.816-11.579-7.631-23.227-9.271-35.407c-3.191-5.99-1.871-12.3-1.532-19.655c3.775,3.345,4.2,6.794,3.83,10.548
				c5.37,17.263,10.612,34.568,16.145,51.779c5.775,17.964,4.482,35.682-1.237,53.326c-0.44,1.356-1.299,2.576-1.964,3.86
				c0.225,1.257-0.281,2.13-1.406,2.677c0.21,0.724-0.007,1.283-0.65,1.676c0.176,1.284-0.359,2.162-1.529,2.676
				c0.175,0.75-0.073,1.315-0.743,1.696c0.214,1.225-0.312,1.979-1.478,2.327l-0.047,0.097
				c-5.174,9.927-10.205,19.929-15.554,29.759c-7.881,14.48-13.163,29.793-15.554,46.103c0,0,0,0,0,0c0,0,0,0,0,0
				c0.012,2.167,0.024,4.333,0.037,6.5c0.113,2.114,0.34,4.231,0.284,6.34c-0.023,0.878-0.65,1.74-1.003,2.609
				c-0.751-0.635-1.74-1.136-2.189-1.94c-0.48-0.859-0.452-2.002-0.646-3.021C983.038,1420.787,982.179,1413.506,985.066,1406.465z
				 M963.523,1566.137L963.523,1566.137c0.138-1.137,0.458-2.133,1.806-2.323l-0.002-0.002c0.028-1.783,0.137-3.524,2.2-4.254
				c0,0,0,0,0.001,0c0.303-0.686,0.607-1.373,0.912-2.059c0,0,0,0,0,0c0,0,0,0,0,0c0.596-1.846,1.069-3.779,3.197-4.548c0,0,0,0,0,0
				c1.172-2.115,2.344-4.23,3.516-6.345c2.155-4.846,4.393-9.647,7.591-13.924c0,0,0,0,0,0c0,0,0,0,0,0
				c1.004-2.625,2.008-5.251,3.012-7.877c0,0,0,0,0,0l0,0c1.404-4.388,2.808-8.777,4.212-13.165c0,0,0,0,0,0c0,0,0,0,0,0
				c0.72-4.3,1.441-8.6,2.161-12.901c-0.03-2.512-0.152-5.029-0.04-7.534c0.04-0.883,0.205-2.432,1.704-1.849
				c0.834,0.324,1.79,1.392,1.936,2.253c0.787,4.64,1.305,9.317-1.26,13.672c-0.322,3.231-0.323,6.538-2.21,9.402
				c-0.001,0.002-0.001,0.003-0.001,0.005c-0.014,5.331-1.967,10.055-4.568,14.576c0,0,0,0,0,0c0,0,0,0,0,0
				c-0.071,2.438-1.471,4.304-2.69,6.248c-1.833,5.05-4.44,9.629-8.225,13.489v0c-0.792,1.33-1.585,2.659-2.377,3.988
				c-0.184,2.172-1.534,3.519-3.255,4.605c-0.001,0.001-0.003,0.002-0.004,0.003c-0.392,0.612-0.787,1.226-1.182,1.839
				c-0.511,2.322-1.713,4.058-4.075,4.811l-0.001,0c0.135,0.625,0.072,1.228-0.189,1.81c-0.276,0.614-0.404,1.397-0.865,1.802
				c-0.668,0.586-2.115,1.428-2.298,1.243C961.117,1567.664,962.311,1566.851,963.523,1566.137z M948.057,2120.864
				c-0.108,5.814-0.192,11.643-0.668,17.434c-1.251,15.237-1.365,30.498-1.375,45.768c-0.002,3.239,0.435,6.564-1.157,9.607
				c-5.957,3.181-12.649,3.205-19.026,4.329c-9.997,1.762-20.005,3.546-30.287,3.265c-7.612-0.208-14.144-2.503-20.092-7.158
				c-8.859-6.933-15.028-15.816-18.704-26.28c-3.661-10.419-1.512-20.142,5.593-28.537c6.469-7.644,14.764-13.084,24-16.542
				c17.833-6.678,36.275-10.407,55.491-9.067C948.105,2114.121,948.184,2114.043,948.057,2120.864z M954.383,1992.901
				c-3.097,29.293-3.357,58.708-3.919,88.113c-0.151,7.899-0.141,15.858-2.049,23.332c-3.821,1.351-7.096,0.577-10.309,0.378
				c-18.817-1.162-36.861,2.43-54.362,8.963c-9.956,3.716-18.637,9.588-26.336,16.976c-12.027,11.542-14.702,31.382-8.088,44.177
				c4.041,7.818,8.445,15.183,14.484,21.57c1.16,1.227,3.065,2.013,2.86,4.532c-8.136,0.615-15.597-2.456-23.328-3.873
				c-7.327-1.343-13.726-4.579-19.749-8.693c-8.38-5.725-13.612-13.181-16.148-23.472c-5.618-22.8-1.534-43.899,8.699-64.295
				c4.901-9.768,11.16-18.685,18.472-26.832c2.667-2.972,5.313-5.976,8.142-8.791c20.89-20.785,43.459-39.597,67.422-56.719
				c11.563-8.262,24.298-14.412,37.52-19.571c2.039-0.796,3.979-1.816,6.713-0.995
				C954.407,1989.342,954.569,1991.14,954.383,1992.901z M956.683,1944.203c-0.371,9.079-1.102,18.146-1.299,27.228
				c-0.086,3.986-1.913,5.881-5.387,7.049c-4.469,1.502-8.897,3.14-13.28,4.876c-20.515,8.126-38.251,20.694-55.104,34.651
				c-6.998,5.795-13.975,11.617-20.923,17.472c-14.488,12.208-28.157,25.248-39.793,40.257
				c-12.21,15.748-20.534,33.307-24.187,53.003c-2.999,16.172-0.521,31.834,4.212,47.28c1.753,5.721,5.608,10.111,9.95,14.082
				c0.639,0.582,0.842,1.153,0.612,1.715c-0.228,0.556-0.452,0.835-0.672,0.835c-5.735-1.263-10.958-3.809-15.971-6.723
				c-12.356-7.183-19.75-18.387-22.942-31.857c-5.645-23.825-7.828-47.884-3.755-72.413c2.834-17.066,9.011-32.838,15.624-48.561
				c10.011-23.802,22.747-46.247,34.681-69.088c20.706-39.631,44.115-77.656,68.228-115.281
				c9.205-14.364,17.747-29.163,26.302-43.931c5.839-10.08,12.064-19.853,19.284-29.003c9.456-11.982,18.796-24.056,28.219-36.064
				c0.845-1.077,1.943-1.956,2.725-2.731c2.655,0.507,1.936,2.223,1.884,3.454c-1.731,41.403-3.535,82.802-5.258,124.205
				C958.729,1891.171,957.766,1917.689,956.683,1944.203z M1892.564,2204.288c-0.143,6.171-0.77,12.334-1.264,18.494
				c-0.471,5.856-0.968,6.382-6.315,6.316c-4.725-0.058-9.446-0.364-14.171-0.513c-38.885-1.222-77.771-2.408-116.654-3.654
				c-38.157-1.223-76.31-2.572-114.468-3.743c-63.236-1.941-126.475-3.77-189.711-5.682c-8.721-0.264-17.436-0.735-26.154-1.11
				c-0.002,0.062-0.005,0.123-0.007,0.184c-61.419-1.864-122.838-3.716-184.257-5.597c-46.881-1.436-93.761-2.918-140.642-4.359
				c-43.247-1.329-86.496-2.58-129.74-3.97c-13.586-0.437-12.171,0.918-11.682-12.87c2.072-58.499,4.356-116.991,6.57-175.485
				c1.513-39.965,3.046-79.929,4.56-119.894c1.486-39.238,3-78.474,4.427-117.714c1.347-37.058,2.512-74.123,3.942-111.178
				c0.393-10.164,1.226-20.324,2.255-30.446c1.763-17.35,3.183-34.741,6.048-51.972c1.142-6.868,3.218-13.374,5.775-19.81
				c2.45-6.168,6.709-10.394,12.892-12.405c5.161-1.679,10.456-3.115,15.798-4.042c40.68-7.056,81.636-8.438,122.8-5.912
				c32.657,2.003,65.327,3.829,98.004,5.479c40.663,2.054,81.342,3.778,122.008,5.774c35.587,1.746,71.221,2.285,106.802,3.81
				c53.045,2.273,106.089,3.956,159.171,4.69c15.633,0.216,31.273,0.162,46.9,0.606c26.893,0.765,53.79,1.566,80.661,2.841
				c22.511,1.068,44.999,2.709,67.478,4.363c6.86,0.505,13.674,1.64,20.388,3.437c5.347,1.431,10.138,3.808,14.926,6.441
				c6.498,3.573,9.835,8.934,11.771,16.085c5.644,20.854,7.74,42.144,8.881,63.578c0.87,16.34,1.166,32.693,0.696,49.068
				c-0.615,21.448-0.17,42.874,0.979,64.322c1.537,28.687,1.271,57.43,0.832,86.155c-0.278,18.187-0.077,36.339,1.457,54.489
				c1.194,14.122,1.742,28.301,2.501,42.458c2.064,38.479,4.444,76.946,6.036,115.444
				C1893.933,2113.388,1893.618,2158.844,1892.564,2204.288z M1954.822,2226.355c-1.922,0.749-4.306,0.759-6.41,0.521
				c-14.058-1.589-28.1-3.318-42.139-5.062c-1.41-0.175-2.77-0.752-4.856-1.341c0.502-25.921,1.722-50.873,1.03-75.987
				c2.053-0.506,3.779-1.168,5.552-1.333c19.953-1.853,39.068,1.203,57.049,10.239c6.53,3.282,12.324,7.659,17.058,13.31
				c10.052,11.999,10.69,26.466,1.519,39.034C1976.32,2215.745,1966.146,2221.94,1954.822,2226.355z M2026.439,2212.065
				c-14.57,12.066-31.231,18.145-50.323,16.747c-0.221-0.016-0.412-0.453-0.65-0.732c-0.519-2.384,1.632-2.925,2.934-3.939
				c5.196-4.045,9.883-8.564,13.607-14.026c10.575-15.51,10.17-32.645-1.224-47.594c-6.064-7.956-13.89-13.778-22.795-18.196
				c-13.878-6.883-28.631-10.332-44.063-10.835c-6.841-0.224-13.696-0.038-21.283-0.038c-0.526-38.081-0.687-75.782-3.379-112.963
				c2.752-2.512,4.63-0.499,6.332,0.318c31.31,15.038,60.067,33.877,85.311,57.862c13.754,13.069,26.066,27.345,35.942,43.621
				c7.599,12.523,13.372,25.77,15.798,40.306c1.705,10.216,1.065,20.26-2.614,30.037
				C2037.155,2200.28,2032.697,2206.883,2026.439,2212.065z M2075.613,2176.522c-5.487,20.988-19.459,35.302-41.548,41.939
				c7.804-8.688,13.342-16.707,16.094-26.363c4.22-14.806,3.082-29.452-1.302-43.995c-4.446-14.75-11.692-28.101-20.488-40.658
				c-13.656-19.493-30.292-36.154-48.698-51.127c-21.793-17.728-45.575-32.288-70.845-44.474c-1.959-0.945-3.919-1.919-5.957-2.665
				c-3.468-1.268-5.341-3.388-5.017-7.318c0.208-2.518-0.009-5.081-0.156-7.617c-1.979-34.087-4.06-68.169-5.922-102.263
				c-0.534-9.787-0.9-19.623-0.561-29.41c0.832-23.983,0.309-47.952-0.057-71.926c-0.048-3.155-0.007-6.31-0.007-9.167
				c2.648-1.176,3.242,0.567,3.905,1.617c3.679,5.832,7.506,11.595,10.78,17.653c10.375,19.197,21.932,37.635,34.833,55.223
				c12.255,16.708,22.839,34.501,34.097,51.861c15.998,24.67,32.427,49.06,48.391,73.751c7.88,12.187,15.234,24.719,22.647,37.201
				c18.637,31.381,28.992,65.639,33.887,101.534C2082.261,2139.172,2080.431,2158.094,2075.613,2176.522z"/><path d="M1274.533 700.327c-.042-.011-.084-.017-.126-.03.005.014.013.027.019.042C1274.461 700.335 1274.497 700.331 1274.533 700.327zM1375.073 865.619l-.131.195c.003-.003.143-.192.138-.194C1375.078 865.62 1375.075 865.619 1375.073 865.619z"/><polygon points="1379.582 863.523 1379.04 863.695 1379.588 863.524"/><path d="M1515.283,1239.096c-2.98-3.79-6.905-6.427-11.183-8.452c-6.888-3.26-14.073-5.688-21.577-7.18
				c-22.626-4.499-45.363-5.137-68.162-1.752c-10.39,1.542-20.667,3.754-30.282,8.271c-4.629,2.174-9.018,4.688-12.315,8.707
				c-4.699,5.729-4.79,12.047-0.35,17.913c2.001,2.645,4.587,4.604,7.381,6.333c4.652,2.88,9.665,4.948,14.881,6.505
				c16.108,4.808,32.621,6.629,51.065,6.535c9.25,0.54,20.068-0.799,30.805-2.484c9.655-1.515,19.18-3.782,28.048-8.186
				c4.59-2.279,8.911-4.875,11.981-9.11C1519.483,1250.807,1519.37,1244.293,1515.283,1239.096z M1413.138,1257.773
				c-0.485,2.833-2.265,4.508-5.012,5.008c-1.774,0.323-3.61,0.304-4.877,0.398c-5.248-0.294-10.021-0.035-14.408-2.295
				c-1.751-0.902-2.847-2.325-3.088-4.169c-0.311-2.383,1.005-4.107,2.922-5.399c0.301-0.203,0.584-0.487,0.918-0.58
				c6.818-1.896,13.596-2.049,20.187,0.844C1412.392,1252.727,1413.584,1255.176,1413.138,1257.773z"/><path fill="#010101" d="M1606.544,1047.178c-7.089-13.045-19.999-15.903-32.032-7.309
				c-4.188,2.991-7.558,6.768-10.293,11.076c-10.534,16.592-14.063,34.72-11.325,54.065c0.499,3.524,1.737,7.045,3.198,10.316
				c7.174,16.064,21.94,19.359,35.252,8.015c4.755-4.052,8.411-8.988,11.286-14.477c6.152-11.749,9.388-24.241,9.172-38.203
				C1612.057,1062.826,1610.608,1054.658,1606.544,1047.178z M1564.318,1099.995c-2.369,0.058-4.784-2.251-4.959-4.741
				c-0.222-3.16,2.447-6.129,5.852-6.51c1.913-0.214,4.348,1.622,4.756,3.584
				C1570.712,1095.921,1567.772,1099.911,1564.318,1099.995z M1597.86,1073.166c-0.502,8.027-2.093,15.821-6.084,22.916
				c-2.02,3.591-4.674,6.663-9.309,6.361c-3.704-0.241-7.094-4.143-8.209-9.104c-0.395-1.759-0.512-3.58-0.71-5.035
				c0.708-9.582,2.563-18.355,9.521-25.144c4.673-4.56,9.038-3.903,12.324,1.774
				C1596.864,1067.474,1598.046,1070.197,1597.86,1073.166z"/><path d="M986.833 1424.518c.134-.151.269-.301.403-.452C987.056 1424.176 986.93 1424.334 986.833 1424.518z"/><path fill="#7f577d" d="M1705.158,1099.553c-1.689,2.208-4.005,1.891-6.321,1.568c0.162-2.261,0.24-4.545,1.944-6.329
				C1701.393,1097.159,1701.763,1099.746,1705.158,1099.553z"/><path fill="#060505" d="M1470.766,1153.788c-3.622,0-7.246,0.065-10.867-0.011c-15.3-0.322-24.104-10.074-22.79-25.287
				c0.537-6.213,2.753-11.946,5.32-17.567c3.444-7.54,8.188-14.53,9.569-22.95c0.264-1.608,1.801-2.201,3.311-2.175
				c1.953,0.033,3.34,0.966,4.119,2.896c0.737,1.824,0.308,3.53-0.01,5.311c-0.908,5.08-3.517,9.479-5.607,14.077
				c-2.392,5.266-5.205,10.353-6.277,16.131c-0.33,1.78-0.886,3.53-1.068,5.322c-0.869,8.574,3.465,14.585,12.059,14.648
				c11.526,0.085,23.198,1.36,34.589-1.755c0.697-0.191,1.355-0.533,2.057-0.688c3.815-0.842,6.518,0.185,7.179,2.684
				c0.627,2.37-1.225,5.188-4.759,6.358c-5.864,1.941-11.908,3.092-18.133,3.035c-2.897-0.027-5.795-0.005-8.693-0.005
				C1470.766,1153.803,1470.766,1153.796,1470.766,1153.788z"/><path fill="#070505" d="M1580.648,951.394c13.896,0.424,25.046,3.036,35.037,9.756c6.364,4.28,12.196,9.175,17.523,14.662
				c1.494,1.539,2.853,3.326,3.815,5.23c0.865,1.711,0.33,3.511-1.243,4.864c-1.547,1.331-3.253,1.768-4.909,0.487
				c-1.708-1.32-3.144-2.985-4.79-4.394c-4.687-4.012-9.165-8.329-14.182-11.88c-14.42-10.207-30.31-10.956-46.826-6.397
				c-4.601,1.27-8.767,3.436-12.452,6.492c-1.379,1.144-2.536,2.73-4.516,2.786c-1.032,0.029-2.221-0.09-3.081-0.587
				c-1.371-0.793-1.587-2.27-1.407-3.806c0.281-2.399,1.969-3.809,3.619-5.223c5.629-4.826,12.262-7.851,19.311-9.688
				C1571.786,952.33,1577.274,951.918,1580.648,951.394z"/><path fill="#d42488" d="M1238.47 1145.654c-4.864-18.53-15.412-31.758-34.518-37.017-2.083-.573-4.127-1.284-6.189-1.931-2.921 2.212-6.26 1.523-9.521 1.368-13.425-.029-23.71 5.445-30.35 17.311-.006 3.936-2.881 6.529-4.556 9.677-7.397 13.899-10.248 28.407-6.844 44.065 3.079 14.163 10.529 25.207 22.214 33.56 1.454 1.17 3.136 2.007 4.613 3.14 2.021 1.082 3.86 3.034 6.462 1.353 4.646.218 9.147 1.458 13.941.862 15.782-1.96 27.287-10.289 36.121-23.047 2.009-2.902 2.764-6.746 6.246-8.576-.333-3.345.763-6.406 1.672-9.562C1240.73 1166.544 1241.217 1156.121 1238.47 1145.654zM1211.584 1195.76c-3.554 3.249-7.762 5.267-12.466 6.162-2.126.405-4.319.46-4.392.468-10.977.414-18.402-2.95-24.516-9.169-13.693-13.927-17.099-38.519-3.974-57.046.578-.816 1.635-1.309 2.515-1.883.277-.181.895-.305 1.027-.159.436.486 1.151 1.3.996 1.644-1.178 2.617-2.574 5.136-3.834 7.718-6.325 12.956-6.171 25.876.5 38.63 7.871 15.048 25.256 21.302 39.438 11.812.891-.596 1.883-1.115 2.903-1.414.55-.162 1.483.008 1.852.398C1212.43 1193.765 1212.518 1194.906 1211.584 1195.76zM1219.384 1187.658c-.492.098-1.382-.354-1.641-.81-.668-1.178.82-3.549 2.209-3.783 1.204.159 1.976 1.005 1.969 2.005C1221.912 1186.542 1220.729 1187.389 1219.384 1187.658zM1747.099 1116.787c-1.292-2.153-3.005-4.158-2.925-6.906-1.226-.72-2.625-1.251-3.654-2.188-8.675-7.896-18.906-11.144-30.505-10.453-1.619.771-3.238 1.542-4.858 2.313-1.834 1.62-4.524-.209-6.32 1.567-23.919 13.14-33.949 36.868-26.639 63.125.767 2.756 1.735 5.446.702 8.339 3.361.359 4.411 3.313 6.097 5.506 5.922 7.7 13.759 12.299 23.192 14.144 3.125.611 6.373.594 9.564.864 1.719 1.583 3.231-.193 4.847-.297 1.635-.762 3.231-1.627 4.911-2.273C1750.743 1179.29 1762.115 1141.8 1747.099 1116.787zM1709.647 1177.822c-4.246.537-7.758-1.41-10.94-3.782-5.286-3.939-9.502-8.764-11.005-15.456-5.683-11.211-4.057-22.37.699-33.271 2.346-5.378 6.524-9.458 11.761-12.294 1.627-.881 3.389-1.289 5.2-.862.527.125.981.815 1.326 1.34.149.228.069.839-.135 1.024-.789.714-1.587 1.496-2.528 1.952-12.153 5.882-14.94 16.635-14.92 28.776.005 2.86.548 5.719.843 8.578.463.976.991 1.926 1.38 2.931 3.452 8.922 9.185 15.319 18.909 17.529.605.137.957 1.706 1.218 2.665C1711.489 1177.08 1710.307 1177.738 1709.647 1177.822zM1730.608 1168.276c-.48 1.441-1.467 2.393-2.961 2.56-1.684.188-3.034-1.895-2.415-3.678.507-1.463 1.531-2.278 3.163-1.942C1729.682 1165.481 1730.81 1167.092 1730.608 1168.276z"/><path fill="#010101" d="M1318.875,1035.003c-2.672-5.634-6.475-10.473-11.655-14.068
				c-6.578-4.565-14.892-4.288-21.234,0.597c-3.836,2.955-6.319,6.906-8.345,11.214c-3.787,8.054-4.898,16.605-4.766,25.867
				c-0.131,10.566,2.014,21.108,7.049,30.995c2.494,4.896,5.667,9.26,10.114,12.59c8.398,6.287,18.173,5.419,25.379-2.24
				c3.812-4.052,6.305-8.918,7.757-14.166C1327.995,1068.375,1326.635,1051.371,1318.875,1035.003z M1289.952,1081.63
				c-2.601,0.23-5.471-2.492-5.636-5.347c-0.165-2.854,2.401-5.524,5.335-5.551c2.311-0.021,4.741,2.272,5.011,4.73
				C1294.977,1078.316,1292.626,1081.394,1289.952,1081.63z M1311.763,1073.149c-3.217,5.266-8.95,5.445-12.329,0.326
				c-1.163-1.76-1.915-3.896-2.42-5.967c-1.499-6.147-0.463-12.26,0.654-18.344c0.065-0.353,0.216-0.691,0.34-1.032
				c1.647-4.513,5.349-7.969,8.335-7.479c4.561,0.749,6.703,4.13,7.694,8.171c0.771,3.14,0.921,6.432,1.346,9.657
				C1315.257,1063.68,1314.494,1068.678,1311.763,1073.149z"/><g><path d="M2792.073,2248.937c-4.511-1.85-9.295-1.314-13.964-1.434c-36.351-0.937-72.703-1.788-109.057-2.614
					c-43.987-1-87.976-1.921-131.963-2.938c-11.633-0.269-23.262-0.721-34.888-1.206c-1.149-0.048-3.039,0.687-3.417-1.796
					c0.791-0.49,1.577-1.117,2.467-1.509c21.477-9.466,40.011-23.054,55.954-40.168c2.78-2.984,6.572-4.806,10.641-5.072
					c22.65-1.481,44.505-6.674,65.487-15.316c13.835-5.698,26.828-12.922,38.247-22.729c5.546-4.763,10.49-10.071,14.304-16.35
					c10.344-17.028,6.698-33.479-9.841-44.387c-5.505-3.63-11.526-6.151-17.854-7.893c-10.563-2.907-21.329-4.398-32.304-4.433
					c-2.694-0.008-5.624,0.665-8.076-1.122c1.806-9.733,3.661-18.982,5.184-28.285c0.723-4.415,1.256-8.971,0.958-13.405
					c-0.36-5.352-4.503-9.745-9.83-10.373c-2.967-0.35-5.972-0.169-8.963-0.157c-108.362,0.412-216.724,0.832-325.087,1.229
					c-7.633,0.028-15.267-0.156-22.9-0.163c-3.64-0.003-7.246,0.246-10.712,1.636c-2.705,1.085-4.243,3.009-3.979,5.812
					c0.441,4.691,0.853,9.445,1.973,14.002c10.883,44.295,29.058,85.201,57.322,121.263c20.685,26.391,45.35,48.052,75.904,62.525
					c1.476,0.699,3.4,1.06,4.117,3.945c-3.363,0-6.472,0.07-9.578-0.011c-20.356-0.53-40.71-1.167-61.067-1.632
					c-78.159-1.787-156.32-3.507-234.479-5.283c-33.445-0.76-66.888-1.594-100.332-2.399c-78.883-1.9-157.766-3.832-236.651-5.693
					c-43.623-1.029-87.25-1.899-130.873-2.917c-85.792-2.003-171.583-4.044-257.374-6.097
					c-85.427-2.044-170.853-4.168-256.281-6.168c-75.977-1.779-151.958-3.362-227.935-5.166
					c-105.058-2.495-210.111-5.162-315.169-7.664c-71.614-1.706-143.231-3.248-214.846-4.903c-2.442-0.056-5.054,0.607-7.625-1.338
					c0.635-3.015,1.18-6.216,1.988-9.349c15.14-58.714,30.306-117.421,45.481-176.126c1.999-7.734,4.153-15.428,6.079-23.18
					c0.644-2.591,2.148-3.566,4.616-3.558c4.364,0.013,8.729,0.1,13.09-0.006c6.533-0.159,7.711-1.067,8.537-7.251
					c3.129-23.411,6.231-46.826,9.168-70.262c1.163-9.278,0.52-9.886-8.974-10.165c-26.896-0.789-53.793-1.496-80.69-2.245
					c-2.858-0.08-5.722-0.128-8.568-0.373c-1.528-0.131-2.742-1.329-2.913-2.853c-0.202-1.796-0.216-3.619-0.218-5.431
					c-0.02-20.727-0.038-41.454-0.007-62.182c0.003-2.101-0.48-4.311,0.812-6.254c0.377-0.056,0.773-0.231,1.09-0.138
					c0.662,0.195,1.317,0.47,1.915,0.817c15.893,9.252,32.9,10.498,50.61,7.263c19.06-3.481,35.009-13.689,51.131-23.487
					c3.448-2.095,3.271-6.595-0.387-9.146c-6.549-4.567-13.286-8.887-20.128-13.006c-8.1-4.875-16.568-9.045-25.705-11.688
					c-19.651-5.684-38.709-5.953-56.462,6.089c-0.462,0.313-1.322,0.04-1.991,0.04c-0.286-0.628-0.806-1.238-0.806-1.848
					c-0.027-17.812-0.004-35.624,0.027-53.435c0.001-0.348,0.12-0.755,0.326-1.026c0.184-0.241,0.565-0.332,0.859-0.489
					c0.336-0.037,0.802-0.236,0.99-0.086c1.703,1.362,3.323,2.828,5.033,4.182c15.209,12.045,32.427,17.345,51.836,15.79
					c26.574-2.13,49.833-12.32,70.697-28.52c0.572-0.444,1.078-0.974,1.612-1.467c3.202-2.962,2.94-6.667-0.71-8.995
					c-9.18-5.854-18.134-12.062-27.25-18.019c-2.42-1.582-5.052-2.862-7.663-4.125c-12.751-6.168-26.106-8.458-40.235-6.651
					c-19.287,2.467-36.36,9.78-50.976,22.625c-2.485,2.184-4.059,2.979-7.204,0.426c-3.079-2.5-6.513-0.451-6.94,3.533
					c-0.347,3.239-0.276,6.529-0.276,9.796c0.007,58.182,0.031,116.363,0.051,174.545c0.001,2.909,0.071,5.821-0.029,8.727
					c-0.133,3.873-0.811,4.592-4.353,4.503c-10.178-0.256-20.355-0.549-30.53-0.902c-4.857-0.168-4.913-0.288-5.036-4.999
					c-0.047-1.817-0.018-3.636-0.003-5.454c0.719-82.905,1.436-165.809,2.196-248.713c0.015-1.624-0.75-3.685,1.514-4.616
					c0.361,0.086,0.763,0.063,0.981,0.253c1.916,1.666,3.769,3.403,5.696,5.056c14.748,12.653,31.477,19,51.196,16.738
					c9.198-1.055,17.672-3.931,25.824-8.066c19.737-10.011,35.28-25.427,51.435-40.039c2.065-1.868,1.401-4.32-1.183-4.702
					c-13.117-1.939-25.085-7.008-36.78-12.995c-5.483-2.807-11.151-5.3-16.881-7.568c-14.474-5.729-29.071-5.606-43.621-0.214
					c-12.157,4.505-22.634,11.474-30.951,21.531c-1.095,1.324-2.079,3.159-4.083,1.723c0-8.505-0.41-16.882,0.104-25.201
					c0.637-10.288-2.72-19.297-7.507-27.983c-4.781-8.673-12.026-14.383-21.507-17.296c-10.701-3.288-21.513-3.112-32.328-0.9
					c-8.929,1.826-17.347,5.283-25.69,8.858c-10.026,4.296-20.158,8.229-30.897,10.406c-2.13,0.432-4.256,1.021-6.28,1.805
					c-4.952,1.919-5.747,6.545-1.79,10.337c1.304,1.25,2.754,2.399,4.289,3.349c13.591,8.407,27.144,17.087,42.08,22.792
					c20.828,7.957,42.199,10.789,63.796,2.245c0.944-0.374,2.096-0.219,3.155-0.311c0.886,13.623,0.242,49.818-1.031,58.568
					c-2.565,0.945-3.947-1.291-5.679-2.296c-7.584-4.398-15.452-8.088-24.051-9.942c-24.823-5.354-48.482-2.348-70.361,10.857
					c-11.499,6.94-22.527,14.661-33.753,22.053c-0.903,0.595-1.756,1.301-2.517,2.07c-2.502,2.529-2.195,6.379,0.689,8.529
					c4.162,3.103,9.115,4.498,13.933,6.036c13.48,4.301,27.008,8.458,40.567,12.507c26.087,7.792,50.965,5.202,74.419-8.987
					c1.242-0.752,2.468-1.535,3.736-2.24c1.47-0.817,3.087-0.162,3.188,1.313c0.124,1.806,0.173,3.62,0.161,5.431
					c-0.401,60.362-0.752,120.724-1.318,181.084c-0.056,6.027,1.417,12.303-1.561,18.121c-5.772,1.176-11.579,0.339-17.361,0.199
					c-9.45-0.228-18.893-0.73-28.34-1.088c-2.542-0.096-4.096-1.146-4.132-3.872c-0.01-0.727-0.054-1.453-0.069-2.18
					c-0.728-36.354-1.461-72.709-2.172-109.064c-0.064-3.262-0.216-6.524,0.885-9.714c1.853-5.371-0.141-9.909-3.203-14.254
					c-3.497-4.962-8.275-8.015-13.898-9.998c-8.836-3.115-17.922-2.901-26.954-1.642c-18.524,2.583-33.426,13.655-49.56,21.794
					c-2.561,1.292-2.845,5.683-0.712,7.712c1.815,1.726,3.941,3.22,6.142,4.432c11.535,6.356,23.868,10.834,36.734,13.251
					c11.919,2.24,23.899,1.868,35.14-3.895c1.766-0.906,3.583-2.738,6.13-0.994c0.095,1.65,0.255,3.455,0.295,5.262
					c0.44,19.63,0.88,39.26,1.28,58.891c0.267,13.088,0.511,26.176,0.676,39.266c0.049,3.852-0.636,4.555-4.25,4.58
					c-5.09,0.035-10.182-0.065-15.271-0.198c-26.534-0.691-53.067-1.473-79.603-2.083c-7.841-0.18-8.813,0.904-9.363,8.473
					c-0.079,1.087-0.083,2.18-0.115,3.27c-0.672,23.26-1.392,46.517-1.993,69.778c-0.326,12.609-0.233,12.611,12.568,12.715
					c6.545,0.053,13.092,0.03,19.635,0.191c4.701,0.115,5.43,0.893,6.228,5.665c0.06,0.358,0.075,0.724,0.128,1.083
					c3.593,24.444,7.192,48.887,10.781,73.331c5.752,39.182,11.519,78.363,17.213,117.554c0.606,4.171,1.41,8.392,0.866,13.245
					c-3.038,0-5.545,0.054-8.049-0.008c-46.893-1.161-93.786-2.328-140.678-3.531c-1.574-0.041-3.145-0.267-4.715-0.481
					c-1.288,6.701-0.753,3.917-2.041,10.619c9.027,2.098,18.238,1.475,27.366,1.689c79.946,1.876,159.895,3.594,239.843,5.402
					c35.976,0.813,71.95,1.724,107.926,2.588c78.491,1.886,156.981,3.797,235.473,5.647c43.97,1.036,87.944,1.929,131.914,2.956
					c84.67,1.978,169.339,3.986,254.007,6.017c82.852,1.988,165.701,4.081,248.554,6.017c77.402,1.808,154.808,3.452,232.212,5.203
					c34.523,0.781,69.044,1.646,103.565,2.478c78.491,1.892,156.981,3.815,235.473,5.668c43.97,1.038,87.944,1.927,131.914,2.943
					c88.304,2.042,176.608,4.095,264.911,6.203c80.671,1.926,161.341,3.958,242.011,5.892c55.598,1.333,111.197,2.622,166.797,3.851
					c54.51,1.205,109.023,2.32,163.535,3.432c2.518,0.051,5.044-0.315,7.566-0.487
					C2793.519,2254.831,2793.382,2251.891,2792.073,2248.937z M317.49,1780c6.353-6.139,13.367-11.17,22.162-13.215
					c0,0,26.067,0.489,26.067,0.489c4.241-0.005,13.665,1.646,19.639,6.219c0,0,17.917,8.248,19.177,9.304
					c0.302,0.254,0.578,0.71,0.829,1.294c1.988,4.634-0.138,10.025-4.621,12.335c-1.35,0.696-2.423,1.261-2.603,1.394
					c-5.393,3.95-16.073,6.69-18.627,7.832c-7.415,3.315-36.57,6.168-40.158,2.733c-4.988-1.901-21.348-12.52-21.347-12.521
					c0,0,0,0,0,0c0.008-1.391-0.517-15.863-0.517-15.863C317.49,1780.001,317.49,1780,317.49,1780z M324.251,1692.834
					c0,0,0.001,0,0.002,0.001c0-0.001,0-0.001-0.001-0.002c1.302-0.834,2.604-1.67,3.907-2.506c0,0,0.001,0,0.001-0.001h0
					c0.779-0.755,1.558-1.511,2.337-2.267c0,0,0.001,0,0.001,0c0.82-0.808,1.64-1.616,2.461-2.425c0.001,0,0.001,0.001,0.002,0.001
					c0-0.001-0.001-0.001-0.001-0.002c2.431-2.946,21.377-11.166,31.12-12.972c3.502-0.649,6.976-1.45,10.462-2.181
					c0,0-0.001,0-0.001,0c7.163-3.188,24.119,1.361,29.265,3.879c3.573,1.748,7.2,3.393,10.731,5.222
					c1.998,1.035,11.495,6.227,15.468,9.347c1.21,0.95,3.083,2.82,4.12,5.176c0.561,3.194-3.213,6.993-3.475,6.993
					c-2.894,2.935-12.363,3.908-12.445,4.297c0,0-21.869,9.069-21.869,9.069c-1.327,0.636-16.602,4.773-21.218,5.36
					c-4.87,0.619-9.65,0.467-14.376-0.675c-1.006-0.243-2.022-0.416-3.056-0.454c-4.086-0.149-15.582-0.901-21.234-4.682
					c-1.564-1.047-3.135-4.168-3.135-4.168c-2.79-2.445-5.626-4.841-8.346-7.362C324,1701.582,320.529,1694.938,324.251,1692.834z
					 M276.197,1605.437C276.197,1605.437,276.198,1605.437,276.197,1605.437C276.198,1605.437,276.197,1605.437,276.197,1605.437
					c0.539-0.509,16.558-17.431,17.097-17.94c9.36-7.68,39.685-12.055,46.508-10.554c15.535,3.418,44.736,22.162,45.371,22.238
					c0.56,0.284,0.833,0.658,0.82,1.121c-0.015,0.507-0.093,0.761-0.236,0.761c-1.646,2.754-7.749,6.444-9.148,7.88
					c-4.033,4.138-8.758,7.393-13.582,10.515c-0.837,0.499-6.594,4.083-6.741,4.083c-1.491,0.909-3.021,1.76-4.467,2.735
					c-5.819,3.922-22.506,7.889-23.798,8.102c-12.848,2.121-24.199-1.099-33.935-9.685c-3.483-3.072-17.272-10.12-17.663-12.594
					C275.92,1609.893,272.78,1607.777,276.197,1605.437z M258.29,1658.223c-2.794,3.743-8.163,9.735-15.275,14.114
					c-11.931,7.346-27.826,11.247-28.301,11.308c-6.73,0.861-13.479,0.699-20.199-0.184c-1.023-0.135-19.415-4.208-28.42-6.744
					c-1.22-0.344-19.647-3.803-26.221-9.316c-0.839-0.704,0.961-5.744,3.568-7.525c4.173-2.899,7.469-5.571,11.135-8.444
					c2.854-2.237,29.63-14.094,30.532-14.362c7.942-2.361,26.976-3.07,27.882-3.028c11.773,0.552,44.184,16.046,45.126,17.106
					C259.867,1653.118,259.866,1656.112,258.29,1658.223z M186.84,1767.042c-2.145,3.576-19.906,6.127-27.611,3.746h0
					c-2.911-0.552-5.745-1.089-8.656-1.641c-1.538-0.575-3.318-0.633-4.799-1.329c-2.008-0.943-12.295-3.14-17.367-5.513
					c-3.579-3.632-3.314-4.905,1.743-8.404c1.145-0.278,9.062-4.665,12.512-6.583c0,0.001,0.001,0.002,0.002,0.003
					c0-0.001,0.001-0.003,0.002-0.005c3.757-1.278,31.872-8.64,35.416-6.91v0c0,0,0,0,0,0c1.715,0.421,3.617,0.251,5.225,1.005
					c1.358,0.637,2.742,1.201,4.181,1.627c3.189,0.944,8.007,5.259,8.487,8.679C196.806,1757.642,186.674,1766.957,186.84,1767.042z
					 M224.938,1529.483c16.96-2.396,26.687-2.466,33.677,14.814c0.576,1.372,1.41,1.305,2.79,4.2c0.133-0.057,1.519,3.131,1.56,3.27
					c0.087,0.294,0.176,0.571,0.264,0.841c1.122,3.448,0.248,7.304-2.427,9.753c-0.678,0.621-1.459,1.114-2.474,1.312l0,0
					c-4.823,3.093-8.233,6.455-14.456,9.298c-4.742,2.166-8.947,4.121-14.237,3.958c-9.798-0.302-19.226-2.602-28.741-4.501
					c-0.001-0.01-0.001-0.019-0.002-0.029c0,0.009-0.001,0.018-0.001,0.027c-3.602-1.486-6.501-4.72-11.022-4.057
					c-0.96,0.141-2.165-1.383-3.258-2.141c-5.203-3.119-10.406-6.239-15.608-9.358c-0.333-0.535-0.808-0.865-1.426-0.99
					c-0.817-0.318-1.634-0.637-2.452-0.955h0c-1.275-0.57-2.611-1.037-3.79-1.759c-0.069-0.042-0.13-0.095-0.186-0.157
					c-0.631-0.7-0.204-1.856,0.695-2.138c0.181-0.057,0.363-0.101,0.548-0.126 M107.135,1965.452
					c-2.543-0.009-5.09,0.004-7.626-0.145c-1.544-0.091-2.699-0.888-2.755-2.635c-0.046-1.449-0.049-2.901-0.013-4.351
					c0.509-21.067,1.03-42.134,1.541-63.201c0.044-1.836,0.179-3.631,1.539-5.085c9.326-0.467,298.952,7.528,309.422,8.645
					c-1.731,13.447-3.374,26.396-5.072,39.336c-1.139,8.678-2.362,17.345-3.536,26.019c-0.242,1.788-1.746,3.141-3.55,3.179
					c-3.268,0.069-6.538,0.11-9.807,0.085c-74.125-0.544-148.25-1.115-222.375-1.641
					C145.647,1965.521,126.391,1965.524,107.135,1965.452z M310.132,2189.562c-46.511-1.195-93.023-2.357-139.535-3.544
					c-1.431-0.037-2.858-0.211-5.684-0.429c-10.129-68.801-20.181-137.055-30.2-205.314c-0.204-1.387-0.025-2.829-0.025-4.55
					c1.719-0.306,3.086-0.723,4.465-0.768c19.535-0.637,227.477,1.409,234.821,2.333c-1.311,5.31-2.561,10.574-3.911,15.813
					c-16.126,62.559-32.177,125.138-48.502,187.645C319.181,2189.853,321.402,2189.852,310.132,2189.562z M2619.1,2090.491
					c14.737-0.206,29.24,1.047,43.238,6.389c3.875,1.479,7.565,3.443,10.831,6c9.518,7.453,11.529,16.24,6.277,27.157
					c-2.068,4.298-4.929,8.039-8.176,11.501c-4.499,4.797-9.562,8.93-15.048,12.524c-23.518,15.41-49.521,23.891-77.237,27.539
					c-1.439,0.189-2.896,0.286-4.347,0.305c-0.705,0.009-1.414-0.26-3.036-0.589c1.082-1.9,1.511-2.86,2.118-3.691
					c17.545-24.004,29.865-50.573,38.725-78.84c0.434-1.386,0.738-2.812,1.133-4.21
					C2614.363,2091.796,2616.093,2090.533,2619.1,2090.491z M2256.6,2053.988c-0.906-3.802-1.853-7.595-2.73-11.177
					c1.909-2.096,4.14-2.224,6.292-2.322c6.165-0.282,12.335-0.607,18.504-0.625c107.859-0.315,215.718-0.586,323.577-0.866
					c3.219-0.008,6.438,0,7.558,0c2.907,1.009,3.139,1.576,3.07,2.444c-1.25,15.743-1.507,12.731-13.898,12.857
					c-106.4,1.083-212.802,2.031-319.204,3.028c-6.171,0.058-12.341,0.196-18.512,0.271
					C2258.774,2057.626,2257.189,2056.461,2256.6,2053.988z M2392.747,2228.462c-19.864-7.695-37.458-19.104-53.399-33.137
					c-20.099-17.692-36.349-38.509-49.86-61.547c-11.06-18.86-19.839-38.749-26.831-59.44c-1.441-4.265-0.896-5.132,3.685-5.511
					c4.702-0.388,9.428-0.601,14.146-0.643c105.359-0.931,210.719-1.835,316.08-2.708c3.927-0.032,7.937-0.588,11.665,0.6
					c0.906,4.555-0.926,8.3-1.836,12.124c-6.424,27.013-16.342,52.653-30.739,76.465c-12.135,20.07-26.939,37.856-45.431,52.419
					c-20.691,16.295-43.917,26.853-70.14,30.202C2436.915,2240.246,2414.462,2236.874,2392.747,2228.462z"/><path fill="#747272" d="M2791.965,2257.75c0.035-2.938,0.071-5.876,0.107-8.813c0.677,0.037,1.354,0.073,2.03,0.11
				c0,2.909,0,5.818,0,8.727C2793.389,2257.766,2792.677,2257.758,2791.965,2257.75z"/><path fill="#020202" d="M2464.673 1931.717c1.486-10.082.521-18.396-3.102-26.103-4.911-10.446-3.852-20.404 1.076-30.378 2.098-4.247 3.512-8.728 4.644-13.339 1.008-4.107.61-7.904-1.251-11.622-.813-1.624-1.654-3.234-2.459-4.861-4.209-8.505-5.53-17.175-1.931-26.307 1.325-3.363 1.935-7.001 3.133-10.423 2.68-7.658 1.749-14.987-1.443-22.262-2.041-4.65-3.882-9.391-5.72-14.126-3.134-8.073-3.586-16.222-.665-24.493 1.329-3.763 2.267-7.668 3.677-11.398.752-1.99 1.944-3.892 3.282-5.557 1.2-1.492 3.053-1.823 4.938-1.141 1.554.563 2.14 1.888 2.374 3.355.53 3.319-.369 6.435-1.253 9.616-5.218 18.791-5.417 18.908 2.465 36.504 5.308 11.85 6.77 23.622 2.079 35.908-.388 1.016-.583 2.108-1.009 3.105-3.844 8.985-3.438 17.545 1.849 25.984 4.522 7.219 4.857 15.111 2.105 23.076-1.775 5.137-3.816 10.185-5.82 15.24-2.207 5.565-3.275 11.047-.471 16.821 6.128 12.617 5.81 26.027 4.536 39.53-.241 2.552-.319 5.187-2.184 7.136-.938.98-2.303 1.975-3.57 2.117-1.929.217-3.494-1.19-4.193-2.903-.666-1.631-.955-3.49-1.041-5.266C2464.56 1936.67 2464.673 1933.397 2464.673 1931.717zM2398.062 1817.953c-3.279-3.268-4.188-7.621-4.639-11.914-.691-6.595-2.459-12.828-5.138-18.816-3.709-8.29-4.792-16.783-1.665-25.394 2.677-7.37 1.466-14.267-1.408-21.157-.139-.334-.307-.66-.492-.971-7.001-11.796-6.989-24.12-2.8-36.77 2.61-7.882 2.148-15.71-.306-23.556-1.949-6.23-3.834-12.488-5.487-18.802-2.402-9.18-1.193-18.005 3.278-26.365.497-.93 1.167-1.827 1.949-2.522.469-.417 1.489-.762 1.95-.527.897.456 1.871 1.21 2.265 2.087.412.918.393 2.166.198 3.201-2.166 11.487.584 22.337 4.149 33.096.57 1.721.978 3.499 1.586 5.205 3.784 10.614 4.013 21.303.878 32.113-.807 2.781-1.538 5.607-2 8.461-.832 5.137-.166 10.088 2.158 14.836 1.592 3.253 3.01 6.608 4.261 10.007 2.7 7.334 3.632 14.861 1.077 22.406-2.587 7.64-2.011 14.869 1.343 22.172 2.418 5.266 4.187 10.801 4.75 16.676C2404.592 1807.911 2403.634 1813.722 2398.062 1817.953z"/><path fill="#030303" d="M2349.769,1796.694c-1.805,9.332,0.728,17.572,5.327,25.25
				c6.226,10.393,7.189,21.199,2.917,32.445c-3.042,8.008-2.605,15.579,1.857,22.971c1.493,2.473,2.624,5.189,3.709,7.88
				c2.377,5.896,3.129,11.878,0.941,18.08c-1.448,4.104-2.459,8.362-3.832,12.495c-1.561,4.7-1.502,9.01,0.917,13.619
				c3.957,7.537,5.599,15.722,4.552,24.29c-0.496,4.058-1.704,7.777-5.12,10.466c-1.872,1.473-4.365,0.85-5.241-1.411
				c-1.086-2.801-1.182-5.673-0.781-8.585c1.028-7.473-0.369-14.543-3.987-21.064c-3.427-6.177-3.575-12.422-1.475-18.943
				c1.225-3.803,2.25-7.677,3.632-11.42c2.17-5.876,1.374-11.378-1.449-16.795c-1.511-2.897-2.939-5.846-4.242-8.842
				c-3-6.9-3.604-13.889-1.394-21.252c4.052-13.504,6.765-16.047-3.311-34.084c-7.402-13.251-3.969-25.986,2.538-38.4
				c0.229-0.437,1.279-0.689,1.89-0.609c0.554,0.073,1.438,0.678,1.483,1.119
				C2349.145,1788.229,2349.444,1792.569,2349.769,1796.694z"/><path fill="#040404" d="M2530.498,1844.45c-0.962,9.094,0.554,17.136,4.85,24.641c2.87,5.015,2.947,10.367,1.397,15.802
				c-1.093,3.831-2.135,7.687-3.461,11.438c-1.052,2.975-0.808,5.636,0.755,8.319c0.91,1.561,1.709,3.199,2.413,4.865
				c1.894,4.48,2.49,9.033,0.789,13.762c-0.856,2.38-1.371,4.882-2.164,7.287c-1.107,3.354-0.892,6.156,1.817,8.928
				c7.524,7.7,5.905,16.472,2.364,25.304c-0.396,0.988-1.006,1.945-1.712,2.744c-1.519,1.718-3.447,2.85-5.77,2.048
				c-1.961-0.678-2.515-2.703-2.477-4.447c0.063-2.866,0.425-5.769,1.049-8.569c0.939-4.216,0.481-7.856-2.877-10.918
				c-5.262-4.799-5.509-10.693-3.455-17.013c0.336-1.034,0.72-2.052,1.089-3.076c2.038-5.662,2.638-11.036-1.13-16.504
				c-3.27-4.745-3.418-10.177-1.303-15.624c0.785-2.022,1.184-4.194,1.98-6.21c2.392-6.056,2.329-11.675-0.989-17.642
				c-4.856-8.733-5.118-17.948-0.698-27.142c1.404-2.92,2.446-6.013,3.795-8.962c0.187-0.409,1.173-0.542,1.814-0.632
				c0.932-0.13,1.314,0.382,1.358,1.303C2530.102,1837.766,2530.325,1841.377,2530.498,1844.45z"/><path fill="#060606" d="M2295.701,2006.769c-3.464-2.703-4.842-6.11-5.097-9.78c-0.42-6.066-2.641-11.252-6.494-15.835
				c-4.406-5.241-5.312-10.958-2.456-17.245c0.749-1.649,1.269-3.4,1.985-5.065c1.567-3.643,1.189-7.007-1.033-10.309
				c-1.619-2.406-3.133-4.911-4.418-7.508c-4.421-8.929-4.831-18.106-1.398-27.466c0.511-1.394,1.026-2.853,2.802-2.682
				c1.566,0.151,2.39,1.483,3.049,2.778c1.664,3.275,2.933,6.729,2.796,10.425c-0.242,6.5,1.943,12.195,5.646,17.287
				c5.17,7.109,6.427,14.638,2.52,22.527c-2.613,5.277-1.814,9.419,1.766,13.938c3.894,4.914,5.888,10.786,5.978,17.21
				C2301.413,1999.673,2300.275,2003.662,2295.701,2006.769z"/><path fill="#080808" d="M2585.515,1995.964c0.94-5.245-0.132-9.077-1.636-12.813c-0.676-1.678-1.524-3.296-2.398-4.883
				c-3.171-5.759-3.762-11.65-1.085-17.762c0.582-1.328,1.066-2.698,1.623-4.038c1.887-4.545,2.249-9.087,0.051-13.65
				c-1.61-3.342-2.335-6.892-2.031-10.572c0.114-1.38,0.694-2.761,1.259-4.055c0.747-1.712,3.729-2.076,4.49-0.539
				c2.725,5.504,5.431,11.021,7.962,16.616c1.391,3.074,1.384,6.336,0.355,9.587c-0.655,2.072-0.849,4.371-1.864,6.233
				c-3.346,6.138-2.063,11.647,1.101,17.46c3.558,6.536,4.913,13.643,2.77,21.052c-0.399,1.38-0.809,2.835-1.586,4.009
				c-1.271,1.919-3.15,3.006-5.575,2.417c-2.476-0.602-3.474-2.571-3.685-4.811
				C2585.096,1998.44,2585.468,1996.615,2585.515,1995.964z"/><path d="M2254.68 1771.589c.038 2.651-2.72 5.45-5.455 5.537-3.072.097-6.165-2.669-6.533-5.844-.306-2.636 2.186-5.769 4.844-6.09C2250.791 1764.798 2254.632 1768.238 2254.68 1771.589zM2663.806 1707.172c-3.29-.225-5.98-3.408-5.66-6.698.344-3.53 3.395-6.048 6.701-5.532 2.967.464 5.066 2.964 5.091 6.068C2669.967 1704.441 2667.03 1707.392 2663.806 1707.172z"/><path fill="#020202" d="M2496.943,1590.782c2.873,0.249,5.143,2.988,4.933,5.953c-0.21,2.964-2.728,5.432-5.576,5.463
				c-3.235,0.036-6.071-3.335-5.496-6.534C2491.297,1592.916,2494.271,1590.55,2496.943,1590.782z"/><path d="M2697.467,1937.352c0.097,3.16-2.707,6.143-5.95,6.331c-2.808,0.163-5.341-2.52-5.228-5.539
				c0.112-2.992,2.426-5.477,5.302-5.693C2694.637,1932.221,2697.379,1934.509,2697.467,1937.352z"/><path fill="#020202" d="M2307.093,1572.624c-0.108,2.897-2.851,5.147-5.987,4.91c-3.031-0.228-5.458-2.609-5.651-5.543
				c-0.191-2.895,2.499-5.666,5.392-5.553C2304.256,1566.572,2307.21,1569.497,2307.093,1572.624z"/><path d="M2665.724,1865.018c-0.102,3.168-2.588,5.346-5.75,5.037c-2.67-0.26-4.779-2.466-4.767-4.986
				c0.013-2.979,2.531-5.721,5.361-5.837C2663.296,1859.119,2665.823,1861.954,2665.724,1865.018z"/><path fill="#020202" d="M2381.95,1492.198c0.057,2.884-2.452,5.589-5.281,5.695c-2.787,0.104-5.851-2.443-6.026-5.011
				c-0.208-3.045,2.901-5.652,6.544-5.49C2379.82,1487.51,2381.899,1489.607,2381.95,1492.198z"/><path d="M2235.197 1887.219c-.131 2.855-2.731 5.6-5.368 5.67-2.629.07-5.327-2.794-5.274-5.599.055-2.911 2.515-5.468 5.353-5.565C2232.662 1881.63 2235.327 1884.399 2235.197 1887.219zM2464.889 1655.019c-.039 3.124-2.575 5.544-5.594 5.338-2.583-.176-4.824-2.4-4.951-4.912-.146-2.897 2.351-5.827 5.151-6.043C2462.245 1649.189 2464.927 1651.982 2464.889 1655.019z"/><path fill="#020202" d="M2521.643,1513.355c0.097,3.082-2.04,5.446-5.077,5.617c-3.023,0.17-5.664-2.05-5.807-4.882
				c-0.142-2.798,2.226-5.377,5.178-5.641C2518.869,1508.186,2521.552,1510.494,2521.643,1513.355z"/><path d="M2407.395 1985.123c-2.413.258-4.868-1.657-5.304-4.139-.424-2.416 1.377-4.952 3.869-5.448 2.9-.576 5.812 1.655 5.926 4.54C2411.979 1982.449 2409.832 1984.862 2407.395 1985.123zM2596.098 1680.132c.266 2.569-1.731 5.1-4.25 5.386-2.471.28-5.04-1.83-5.31-4.364-.268-2.506 1.733-5.006 4.299-5.371C2593.281 1675.435 2595.829 1677.542 2596.098 1680.132zM2324.468 1673.215c-.193 2.482-2.604 4.638-5.118 4.578-2.931-.07-5.56-3.055-5.096-5.786.405-2.384 3.071-4.218 5.676-3.905C2322.552 1668.417 2324.656 1670.789 2324.468 1673.215z"/><path fill="#020202" d="M2455.893,1434.294c-2.577-0.15-4.648-2.42-4.519-4.954c0.129-2.539,2.44-4.804,4.828-4.732
				c2.407,0.073,4.486,2.411,4.466,5.024C2460.648,1432.169,2458.327,1434.435,2455.893,1434.294z"/><path d="M2620.551 1792.437c.131 2.247-1.591 4.303-3.77 4.504-2.15.198-4.13-1.566-4.349-3.875-.218-2.283 1.472-4.284 3.719-4.404C2618.519 1788.534 2620.418 1790.163 2620.551 1792.437zM2620.894 1596.016c1.988.393 3.305 1.488 3.361 3.563.062 2.29-2.195 4.03-4.349 3.474-2.068-.533-2.875-2.065-2.712-4.013C2617.374 1596.875 2618.978 1596.161 2620.894 1596.016zM2553.497 1755.376c.279 1.6-1.346 3.479-3.151 3.444-1.47-.029-2.726-.584-3.105-2.248-.428-1.877.7-3.758 2.427-4.015C2551.453 1752.291 2553.18 1753.562 2553.497 1755.376zM361.162 1986.987c.197-.646.14-1.498-.122-2.117-.232-.549-.87-1.188-1.41-1.272-.566-.089-1.366.293-1.812.728-.479.466-.789 1.2-.961 1.872-2.137 8.345-5.064 16.499-6.105 25.11-.507.566-.638 1.209-.393 1.929 0 0 0 0 0 0 0 0 0 0 0 0-3.208 7.039-4.648 14.559-6.02 22.098 0 0 0 0 0 0 0 0 0 0 0 0-1.056 4.143-2.111 8.286-3.167 12.429-1.967 1.904-2.148 4.322-1.843 6.815.078.641.623 1.744.94 1.739.969-.015 2.234-.19 2.813-.824.591-.647.506-1.911.717-2.905 0 0 0 0 0 0 1.156-3.996 2.799-7.879 2.819-12.139 2.973-7.311 4.94-14.885 5.932-22.713.492-.529.598-1.127.317-1.793 0 0 0 0 0-.001 0 0 0 0 0 0C357.011 2006.687 358.234 1996.592 361.162 1986.987zM336.678 2071.015c-1.386.866-1.528 2.166-1.362 3.599 0 0 .001 0 .001 0 0 0 0 0-.001 0-.637 2.892-2.509 5.496-2.021 8.65-.541.476-.767 1.071-.678 1.785 0 0 0 .001 0 .001 0 0 0 0-.001 0-2.04 1.907-2.215 4.345-1.839 6.873.096.642.692 1.742.999 1.721.986-.065 2.281-.285 2.819-.956.552-.688.353-1.979.483-3.005.123-1.263.245-2.526.367-3.789 0 0 0 0 0 0h0c1.962-1.924 1.871-4.498 2.195-6.94 1.769-1.899 2.359-4.152 2.063-6.696C339.537 2070.813 338.006 2070.186 336.678 2071.015zM181.858 2158.008c-2.005-14.75-4.097-29.488-6.168-44.229-.056-.742-.111-1.485-.167-2.228.352-2.783.126-5.452-1.538-7.837 0-.001 0-.002-.001-.003.688-2.523.18-4.968-.487-7.402 0 0 0 0 0 0-.042-.713-.083-1.426-.125-2.14.402-2.735.004-5.326-1.394-7.733 0-.001 0-.003-.001-.004-.222-2.522-.444-5.044-.665-7.567.441-3.392-.023-6.639-1.551-9.714-.001-.003-.002-.006-.003-.009-.252-2.589-.504-5.179-.756-7.768.337-2.787.17-5.475-1.536-7.86 0-.001-.001-.003-.001-.004.678-2.516.173-4.954-.491-7.38 0 0 0 0 0-.001 0 0 0 0 0 .001-.042-.714-.084-1.429-.126-2.144.393-2.752.06-5.374-1.4-7.79 0-.001 0-.003-.001-.004-.201-5.63.14-11.337-2.363-16.64 0 0 0 0 0 0 0 0 0 0 0 0-.175-2.004-.35-4.008-.525-6.011-.009-.786-.019-1.571-.028-2.357.381-3.465-.187-6.766-1.725-9.892 0 .001 0 .002 0 .003-.001-.002-.002-.004-.003-.006-.183-3.546-.25-7.104-.608-10.632-.137-1.349-.735-2.958-2.517-2.984-1.96-.029-1.993 1.717-1.97 2.991.031 1.766.467 3.525.729 5.287-.19 3.476-.277 6.932 1.892 9.96 0 0 0 0 0 0l0 0c-.43 5.679-.413 11.303 2.005 16.638.202 2.005.404 4.01.605 6.015-.009.771-.018 1.541-.027 2.312-.447 3.357.064 6.562 1.539 9.61.001.003.002.007.004.011.257 2.624.513 5.248.77 7.871-.382 2.787-.112 5.446 1.527 7.837 0 .001.001.002.001.004-.676 2.522-.198 4.967.499 7.397.041.712.081 1.424.122 2.136-.423 2.73-.018 5.312 1.389 7.71 0 .001 0 .003 0 .004.224 2.534.448 5.067.672 7.601-.466 3.388.015 6.625 1.543 9.693.001.003.002.006.003.009.255 2.596.511 5.192.766 7.789-.362 2.789-.171 5.471 1.526 7.858 0 .002.001.003.001.005-.678 2.509-.181 4.938.5 7.355-.347 3.482-.068 6.858 1.685 9.982 0 0 0-.001 0-.002 0 .002.001.004.001.005.072 12.034 2.472 23.797 4.171 35.641.096.672.413 1.465.901 1.881.423.36 1.235.336 1.875.334.274 0 .713-.323.792-.586C181.498 2160.034 181.988 2158.969 181.858 2158.008z"/><path fill="#060d0d" d="M270.31,1908.575C270.31,1908.575,270.31,1908.575,270.31,1908.575
				c-0.818-0.573-1.63-1.636-2.454-1.645c-11.019-0.117-22.039-0.088-33.059-0.094c0,0,0,0,0,0
				c-16.063-0.499-32.126-0.854-48.19-0.155c0,0,0,0.001,0,0.001c-0.001,0-0.001-0.001-0.003-0.001
				c-20.507-0.352-41.014-0.719-61.522-1.013c-0.956-0.013-2.166,0.37-2.829,1.011c-1.152,1.115,0.131,1.657,0.935,2.202
				c12.326,1.818,24.715,1.544,37.114,1.126c3.553,0.187,7.104,0.469,10.66,0.541c11.782,0.237,23.565,0.398,35.348,0.588
				c2.377,2.181,5.333,1.745,8.166,1.761c10.395,0.058,20.79,0.071,31.185,0.11c6.81,0.026,13.62,0.078,20.431,0.097
				c2.198,0.006,4.333-0.183,5.327-2.64c-0.001,0-0.003,0-0.004-0.001c0.002,0,0.004,0,0.006,0
				C271.446,1909.601,271.374,1908.797,270.31,1908.575z M160.767,1908.541c0.002-0.016,0.008-0.031,0.01-0.047
				c-0.003,0-0.005,0-0.008,0c0.003,0,0.007-0.001,0.01-0.001c0.009,0,0.019,0,0.028,0
				C160.795,1908.508,160.78,1908.524,160.767,1908.541z"/></g></svg>